<?xml version="1.0" encoding="UTF-8"?>
<!DOCTYPE svg PUBLIC "-//W3C//DTD SVG 1.1//EN" "http://www.w3.org/Graphics/SVG/1.1/DTD/svg11.dtd">
<!-- Creator: CorelDRAW -->
<svg xmlns="http://www.w3.org/2000/svg" xml:space="preserve" width="675.548mm" height="226.248mm" version="1.1" style="shape-rendering:geometricPrecision; text-rendering:geometricPrecision; image-rendering:optimizeQuality; fill-rule:evenodd; clip-rule:evenodd"
viewBox="0 0 17072.44 5717.73"
 xmlns:xlink="http://www.w3.org/1999/xlink"
 xmlns:xodm="http://www.corel.com/coreldraw/odm/2003">
 <defs>
  <style type="text/css">
   <![CDATA[
    .fil0 {fill:#2B2B2A;fill-rule:nonzero}
   ]]>
  </style>
 </defs>
 <g id="Слой_x0020_1">
  <metadata id="CorelCorpID_0Corel-Layer"/>
  <path class="fil0" d="M1429.4 92.94l715.99 0 1426.82 3709.04 -734.06 0 -290.01 -764.18 -1512.01 0 -302.92 764.18 -733.2 0 1429.4 -3709.04zm363.16 983.63l-494.82 1272.78 986.21 0 -491.38 -1272.78zm5497.92 -330.46l-493.96 471.59c-336.48,-354.55 -714.27,-531.83 -1134.22,-531.83 -355.42,0 -654.03,121.34 -896.71,363.16 -242.68,241.82 -364.02,540.43 -364.02,894.99 0,246.98 53.35,466.43 160.92,657.47 107.57,191.91 259.89,342.5 456.1,451.79 197.07,109.29 415.65,163.51 655.75,163.51 204.81,0 392.42,-37.87 562.81,-114.45 169.53,-76.59 356.27,-215.14 559.37,-417.37l479.33 499.13c-274.52,267.64 -533.55,452.66 -777.09,555.92 -243.54,103.27 -521.5,154.9 -834.75,154.9 -575.72,0 -1048.17,-182.44 -1415.63,-548.18 -366.6,-365.74 -550.76,-833.89 -550.76,-1405.3 0,-370.05 83.48,-698.78 251.28,-986.21 166.95,-287.43 406.19,-518.06 718.57,-692.76 311.52,-174.7 647.14,-262.47 1006.86,-262.47 306.36,0 600.67,64.54 883.8,194.49 283.13,129.08 527.53,313.25 732.34,551.62zm1510.92 -653.17l715.99 0 1426.82 3709.04 -734.06 0 -290.01 -764.18 -1512.01 0 -302.92 764.18 -733.2 0 1429.4 -3709.04zm363.16 983.63l-494.82 1272.78 986.21 0 -491.38 -1272.78zm2094.38 -983.63l713.41 0 0 1276.22 1006 -1276.22 849.38 0 -1295.15 1654.01 1421.65 2055.03 -837.33 0 -1144.55 -1646.26 0 1646.26 -713.41 0 0 -3709.04zm5663.14 0l0 3709.04 -705.66 0 0 -2321.81 -1384.65 2321.81 -615.3 0 0 -3709.04 706.52 0 0 2398.4 1403.58 -2398.4 595.51 0z"/>
  <path class="fil0" d="M4806.92 5689.17l0 -1109.1 555.84 0 0 109.37 -446.47 0 0 354.35 51.98 0c138.45,0 238.81,12.35 301.34,36.54 62.53,24.45 111.68,62.79 147.71,115.54 36.03,52.49 54.04,110.91 54.04,175.24 0,84.41 -31.91,158.52 -95.21,222.34 -63.3,63.82 -151.31,95.73 -264.54,95.73l-304.68 0zm109.37 -533.71l0 425.12 136.64 0c80.8,0 139.99,-7.98 177.82,-23.67 37.57,-15.95 67.68,-40.14 90.07,-73.08 22.39,-32.94 33.45,-69.74 33.45,-110.65 0,-51.21 -15.7,-94.7 -47.35,-130.21 -31.65,-35.77 -71.02,-59.19 -118.37,-70.51 -47.35,-11.32 -117.34,-16.99 -210.24,-16.99l-62.02 0zm1229.02 -575.4l517.24 1109.1 -119.14 0 -174.21 -364.9 -477.87 0 -173.44 364.9 -123.52 0 523.93 -1109.1 27.02 0zm-13.64 235.2l-190.68 401.95 379.31 0 -188.63 -401.95zm701.23 -235.2l111.43 0 0 465.26 564.07 0 0 -465.26 111.42 0 0 1109.1 -111.42 0 0 -535.25 -564.07 0 0 535.25 -111.43 0 0 -1109.1zm1056.09 0l113.23 0 0 416.36 442.61 -416.36 150.02 0 -533.19 497.68 574.62 611.42 -147.19 0 -486.87 -517.24 0 517.24 -113.23 0 0 -1109.1zm913.02 0l635.61 0 0 109.37 -524.7 0 0 346.88 520.07 0 0 108.59 -520.07 0 0 434.89 520.07 0 0 109.37 -630.98 0 0 -1109.1zm717.19 107.82l0 -107.82 608.33 0 0 107.82 -247.3 0 0 1001.28 -112.97 0 0 -1001.28 -248.07 0zm766.08 -107.82l111.43 0 0 465.26 564.07 0 0 -465.26 111.42 0 0 1109.1 -111.42 0 0 -535.25 -564.07 0 0 535.25 -111.43 0 0 -1109.1zm1055.32 0l110.91 0 0 475.81 80.03 0c145.14,0 249.36,6.95 312.92,21.1 63.3,14.15 114.25,46.32 152.86,97.01 38.86,50.44 58.16,115.54 58.16,195.57 0,78.23 -18.78,143.34 -56.61,194.8 -37.57,51.47 -85.69,85.18 -143.85,101.13 -58.42,15.7 -156.2,23.67 -293.36,23.67l-221.05 0 0 -1109.1zm110.91 1002.05l118.37 0c124.55,0 205.87,-5.92 243.95,-17.76 37.83,-11.84 68.19,-33.71 90.32,-65.88 22.39,-32.17 33.71,-73.34 33.71,-123.78 0,-55.33 -14.15,-100.1 -42.2,-134.84 -28.31,-34.74 -64.07,-55.84 -107.57,-63.82 -43.49,-7.72 -124.55,-11.58 -243.18,-11.58l-93.41 0 0 417.65zm734.43 -1002.05l110.65 0 0 1109.1 -110.65 0 0 -1109.1zm1251.41 1109.1l-115.29 0 0 -849.71 -730.57 849.71 -24.96 0 0 -1109.1 110.91 0 0 864.9 734.94 -864.9 24.96 0 0 1109.1zm-702.52 -1374.41l99.33 0c17.24,26.25 40.14,45.81 68.71,58.93 28.56,12.87 62.79,19.56 102.42,19.56 40.4,0 72.83,-5.92 97.27,-17.5 24.7,-11.32 48.12,-31.91 70.25,-60.99l96.5 0c-11.07,45.29 -39.37,83.12 -84.92,113.48 -45.55,30.36 -105.25,45.55 -179.88,45.55 -73.85,0 -134.07,-14.93 -180.91,-44.78 -46.58,-29.85 -76.43,-67.94 -88.78,-114.25zm1423.05 373.13c77.97,-90.32 174.21,-135.61 288.73,-135.61 91.1,0 166.24,26.25 225.42,78.74 59.44,52.5 89.04,120.43 89.04,204.07 0,118.12 -55.59,202.78 -166.49,253.99 146.16,45.29 219.25,143.34 219.25,294.13 0,100.36 -32.68,181.42 -98.05,242.66 -65.36,61.24 -154.66,91.87 -268.4,91.87 -79.26,0 -148.23,-16.47 -206.9,-49.41 -58.41,-32.68 -113.74,-90.58 -165.47,-172.93l85.95 -50.44c51.21,75.4 99.33,123.78 144.11,145.13 44.52,21.36 91.1,31.91 139.48,31.91 70.25,0 129.95,-20.33 179.36,-60.99 49.15,-40.66 73.85,-100.62 73.85,-179.36 0,-41.69 -8.49,-78.23 -25.22,-109.11 -16.99,-30.88 -40.66,-55.84 -71.28,-74.88 -30.62,-19.04 -59.7,-31.14 -87.49,-36.29 -27.54,-4.89 -73.08,-7.46 -136.39,-7.46l-18.78 0 0 -97.27 36.8 0c164.43,0 246.53,-66.65 246.53,-199.69 0,-62.02 -18.79,-111.17 -56.1,-147.45 -37.57,-36.54 -84.92,-54.81 -142.05,-54.81 -74.37,0 -144.36,33.71 -209.73,101.13l-76.17 -67.94zm1327.58 -107.82l517.24 1109.1 -119.14 0 -174.21 -364.9 -477.87 0 -173.44 364.9 -123.52 0 523.93 -1109.1 27.02 0zm-13.64 235.2l-190.68 401.95 379.31 0 -188.63 -401.95zm1600.61 873.9l-120.69 0 -367.21 -857.18 -373.9 857.18 -120.69 0 482.5 -1109.1 24.19 0 475.81 1109.1z"/>
 </g>
</svg>
