<?xml version="1.0" encoding="UTF-8"?>
<!DOCTYPE svg PUBLIC "-//W3C//DTD SVG 1.1//EN" "http://www.w3.org/Graphics/SVG/1.1/DTD/svg11.dtd">
<!-- Creator: CorelDRAW -->
<svg xmlns="http://www.w3.org/2000/svg" xml:space="preserve" width="706.201mm" height="450.707mm" version="1.1" style="shape-rendering:geometricPrecision; text-rendering:geometricPrecision; image-rendering:optimizeQuality; fill-rule:evenodd; clip-rule:evenodd"
viewBox="0 0 84488.27 53921.5"
 xmlns:xlink="http://www.w3.org/1999/xlink"
 xmlns:xodm="http://www.corel.com/coreldraw/odm/2003">
 <defs>
  <style type="text/css">
   <![CDATA[
    .fil1 {fill:#2B2B2A}
    .fil0 {fill:#2B2B2A;fill-rule:nonzero}
   ]]>
  </style>
 </defs>
 <g id="Слой_x0020_1">
  <metadata id="CorelCorpID_0Corel-Layer"/>
  <g id="_105553236263136">
   <path class="fil0" d="M39849.79 38200.06l1979.75 5405.85 -1271.96 0 -437.24 -1248.02 -2162.26 0 -429.55 1248.02 -1239.9 0 1979.32 -5405.85 1581.84 0zm-1518.15 3092.3l1422.84 0 -715.48 -2043.02 -707.36 2043.02zm4221.08 2313.55l0 -5405.85 3680.84 0 0 1121.09 -2480.26 0 0 4284.76 -1200.59 0zm4436.07 0l0 -5405.85 3919.33 0 0 1041.59 -2718.74 0 0 1144.6 2607.19 0 0 1009.54 -2607.19 0 0 1168.54 2694.81 0 0 1041.59 -3895.4 0zm4960.5 0l0 -5405.85 1200.59 0 0 2122.5 2328.95 0 0 -2122.5 1200.59 0 0 5405.85 -1200.59 0 0 -2162.25 -2328.95 0 0 2162.25 -1200.59 0zm5485.35 -4284.76l0 -1121.09 4865.18 0 0 1121.09 -1828.45 0 0 4284.76 -1200.17 0 0 -4284.76 -1836.57 0zm7862.6 3299.16c381.68,0 673.17,-88.9 874.48,-266.7 201.3,-177.37 336.36,-409.03 405.18,-695.39l1200.59 198.74c-116.68,588.11 -376.12,1039.88 -779.16,1355.3 -402.62,315.44 -967.22,473.14 -1693.39,473.14 -391.93,0 -750.95,-59.41 -1077.06,-179.09 -325.69,-119.24 -602.65,-294.06 -830.88,-524.42 -227.81,-230.8 -405.19,-520.59 -532.56,-870.64 -126.94,-349.62 -190.62,-752.66 -190.62,-1208.28 0,-471.85 66.24,-882.59 198.74,-1232.22 132.5,-349.62 315.42,-638.54 548.36,-866.36 233.37,-228.23 511.61,-399.19 834.74,-512.89 323.55,-114.11 675.73,-170.96 1057.41,-170.96 726.16,0 1290.34,160.28 1693.39,480.84 402.62,320.56 656.93,767.2 762.93,1339.5l-1200.17 191.05c-74.37,-270.55 -210.71,-495.79 -409.46,-675.74 -198.74,-180.37 -480.82,-270.55 -846.69,-270.55 -424,0 -767.2,148.75 -1029.63,445.36 -262.01,296.62 -393.21,720.61 -393.21,1271.96 0,545.8 128.22,968.51 385.52,1268.12 256.87,299.19 597.52,449.2 1021.5,449.2zm2981.17 -3299.16l0 -1121.09 4865.18 0 0 1121.09 -1828.45 0 0 4284.76 -1200.17 0 0 -4284.76 -1836.57 0zm5620.42 4284.76l0 -5405.85 2543.93 0c567.17,0 1001.85,125.66 1303.6,377.4 302.18,251.75 453.47,616.33 453.47,1093.31 0,259.86 -62.39,498.36 -186.77,715.48 -124.81,217.13 -327.4,373.56 -608.2,468.87 312.43,69.23 548.36,214.99 707.36,437.24 159,222.68 238.49,485.11 238.49,787.29 0,487.67 -158.99,863.78 -476.98,1128.78 -317.98,265 -789.85,397.48 -1415.15,397.48l-2559.74 0zm2353.31 -4412.13l-1160.84 0 0 1200.59 1168.54 0c280.8,0 476.98,-53 588.53,-159 111.13,-105.99 166.69,-254.73 166.69,-445.35 0,-196.18 -55.56,-344.5 -166.69,-445.36 -111.55,-100.44 -310.29,-150.88 -596.23,-150.88zm47.44 2170.38l-1208.28 0 0 1248.02 1192.46 0c302.18,0 520.59,-50.43 656.08,-150.88 135.06,-100.87 202.58,-257.29 202.58,-469.29 0,-212 -64.96,-369.7 -194.89,-473.14 -129.94,-103.01 -345.78,-154.72 -647.96,-154.72zm5469.55 2321.25c-397.5,0 -762.93,-56.84 -1096.73,-170.96 -334.23,-114.11 -620.18,-286.36 -858.66,-516.74 -238.5,-230.36 -425.28,-520.58 -560.33,-870.63 -135.49,-349.62 -203.01,-760.36 -203.01,-1232.22 0,-460.74 67.52,-865.06 203.01,-1212.12 135.06,-347.06 321.84,-635.98 560.33,-866.79 238.49,-230.37 524.43,-403.9 858.66,-520.58 333.8,-116.68 699.23,-174.81 1096.73,-174.81 397.48,0 763.35,58.13 1097.15,174.81 333.81,116.68 620.17,290.21 858.66,520.58 238.5,230.8 425.28,519.73 560.33,866.79 135.49,347.06 203.01,751.38 203.01,1212.12 0,471.86 -67.52,882.6 -203.01,1232.22 -135.06,350.05 -321.84,640.26 -560.33,870.63 -238.5,230.37 -524.85,402.63 -858.66,516.74 -333.8,114.12 -699.66,170.96 -1097.15,170.96zm0 -1065.1c476.98,0 845.41,-153.87 1105.27,-461.17 259.43,-307.31 389.37,-728.74 389.37,-1264.28 0,-535.12 -129.94,-953.97 -389.37,-1255.72 -259.86,-302.18 -628.29,-453.49 -1105.27,-453.49 -477,0 -844.99,151.31 -1104.85,453.49 -259.86,301.75 -389.37,720.6 -389.37,1255.72 0,535.55 129.51,956.97 389.37,1264.28 259.86,307.3 627.86,461.17 1104.85,461.17z"/>
   <path class="fil0" d="M36446.05 48868.82l0 -3532.83 784.45 0 0 1387.04 1522.25 0 0 -1387.04 784.45 0 0 3532.83 -784.45 0 0 -1413.02 -1522.25 0 0 1413.02 -784.45 0zm3870.56 0l0 -3532.83 2561.19 0 0 680.53 -1776.74 0 0 748.13 1704.11 0 0 659.85 -1704.11 0 0 763.78 1761.1 0 0 680.53 -2545.55 0zm2898.94 737.79l0 -1470.29 358.71 0c110.63,-96.94 201.7,-243.32 272.65,-439.15 70.96,-195.56 108.12,-407.59 111.74,-636.39 3.36,-228.52 5.04,-495.31 5.04,-800.1 0,-304.78 0,-612.92 0,-924.69l2649.75 0 0 2800.33 509 0 0 1470.29 -753.15 0 0 -737.79 -2405.59 0 0 737.79 -748.14 0zm1491.25 -2462.59c-6.99,197.23 -32.97,378.26 -77.94,542.81 -44.98,164.54 -114.27,314.28 -207.85,449.49l1407.98 0 0 -2067.84 -1101.52 0c-3.36,169.85 -6.99,351.72 -10.34,545.6 -3.36,193.87 -6.99,370.43 -10.34,529.95zm2878.27 1724.79l0 -3532.83 1662.48 0c370.43,0 654.55,82.14 852.06,246.68 197.22,164.55 296.12,402.84 296.12,714.33 0,169.85 -40.78,325.74 -122.08,467.65 -81.57,142.2 -213.98,244.17 -397.53,306.46 204.5,45.26 358.42,140.51 462.35,285.79 103.92,145.54 155.88,317.08 155.88,514.3 0,318.75 -103.92,564.59 -311.76,737.79 -207.85,173.21 -515.99,259.82 -924.69,259.82l-1672.82 0zm1537.61 -2883.3l-758.47 0 0 784.45 763.78 0c183.54,0 311.76,-34.65 384.41,-103.93 72.91,-69.28 109.23,-166.21 109.23,-291.09 0,-127.95 -36.32,-224.89 -109.23,-290.82 -72.64,-65.93 -202.55,-98.62 -389.72,-98.62zm31.3 1418.32l-789.76 0 0 815.46 779.43 0c197.51,0 340.26,-32.69 428.54,-98.62 88.27,-65.92 132.41,-167.89 132.41,-306.45 0,-138.56 -42.47,-241.66 -127.11,-309.26 -84.92,-67.32 -226.01,-101.13 -423.51,-101.13zm4374.53 1464.99l0 -2400.29 -1631.19 2400.29 -800.1 0 0 -3532.83 779.14 0 0 2400.29 1621.14 -2400.29 810.44 0 0 3532.83 -779.43 0zm3439.24 0l0 -1433.98 -436.37 0 -805.4 1433.98 -955.98 0 1080.85 -1808.04 -1065.21 -1724.79 909.32 0 815.46 1392.34 457.31 0 0 -1392.34 784.45 0 0 1392.34 457.31 0 815.46 -1392.34 914.34 0 -1070.23 1730.09 1085.88 1802.74 -955.98 0 -805.13 -1433.98 -441.67 0 0 1433.98 -784.45 0zm5881.14 0l0 -2400.29 -1631.2 2400.29 -800.09 0 0 -3532.83 779.14 0 0 2400.29 1621.14 -2400.29 810.44 0 0 3532.83 -779.43 0zm3205.4 -400.06l-914.35 -2150.81 0 2550.87 -732.48 0 0 -3532.83 1080.57 0 914.35 2244.4 935.03 -2244.4 1075.54 0 0 3532.83 -763.78 0 0 -2556.17 -914.35 2156.11 -680.52 0zm4763.97 452.01c-259.81,0 -498.66,-37.16 -716.84,-111.74 -218.18,-74.32 -405.36,-186.9 -561.24,-337.76 -155.88,-150.58 -277.97,-340.26 -366.25,-568.78 -88.27,-228.51 -132.41,-496.97 -132.41,-805.4 0,-301.15 44.15,-565.42 132.41,-792.26 88.28,-226.84 210.37,-415.42 366.25,-566.27 155.89,-150.58 343.06,-264 561.24,-340.26 218.18,-76.27 457.04,-114.27 716.84,-114.27 259.81,0 498.94,38 717.12,114.27 218.18,76.26 405.08,189.69 560.96,340.26 155.89,150.85 277.97,339.42 366.25,566.27 88.28,226.84 132.41,491.11 132.41,792.26 0,308.43 -44.13,576.89 -132.41,805.4 -88.28,228.52 -210.36,418.21 -366.25,568.78 -155.88,150.86 -342.77,263.44 -560.96,337.76 -218.18,74.58 -457.31,111.74 -717.12,111.74zm0 -696.17c311.76,0 552.57,-100.57 722.14,-301.44 169.86,-200.86 254.51,-476.03 254.51,-826.07 0,-349.76 -84.64,-623.25 -254.51,-820.76 -169.57,-197.51 -410.38,-296.13 -722.14,-296.13 -311.78,0 -552.31,98.62 -722.16,296.13 -169.57,197.51 -254.49,471 -254.49,820.76 0,350.05 84.92,625.21 254.49,826.07 169.85,200.87 410.38,301.44 722.16,301.44zm3984.82 0c249.19,0 439.72,-58.11 571.29,-174.05 131.59,-115.93 220.15,-267.63 265.12,-454.52l784.45 129.9c-76.27,384.4 -245.84,679.69 -509.27,885.58 -263.17,206.16 -631.93,309.25 -1106.55,309.25 -256.18,0 -490.85,-39.11 -704,-116.78 -212.87,-77.94 -393.91,-192.47 -542.81,-343.05 -148.9,-150.59 -264.83,-340.27 -348.09,-568.79 -83.24,-228.8 -124.59,-491.95 -124.59,-789.75 0,-308.14 43.3,-576.61 129.9,-805.4 86.61,-228.52 205.9,-417.09 358.42,-566.27 152.25,-148.9 334.11,-260.64 545.32,-334.95 211.47,-74.59 441.67,-111.75 691.13,-111.75 474.36,0 843.4,104.77 1106.55,314.29 263.17,209.52 429.38,501.45 498.66,875.52l-784.44 124.59c-48.33,-176.55 -137.73,-323.78 -267.63,-441.67 -129.63,-117.62 -314.29,-176.56 -553.14,-176.56 -277.13,0 -501.45,96.94 -672.7,290.82 -171.54,194.16 -257.29,471.29 -257.29,831.39 0,356.75 84.08,633.04 251.98,828.59 167.9,195.83 390.55,293.61 667.67,293.61zm1948.28 -2156.12l0 -732.49 3179.43 0 0 732.49 -1194.83 0 0 2800.33 -784.45 0 0 -2800.33 -1200.15 0zm6104.34 2800.33l0 -2400.29 -1631.19 2400.29 -800.1 0 0 -3532.83 779.14 0 0 2400.29 1621.15 -2400.29 810.43 0 0 3532.83 -779.43 0z"/>
   <path class="fil0" d="M43523.55 23346.37c1503.39,0 2715.42,209.92 3636.3,629.76 108.45,53.98 176.18,104.96 203.17,152.19 27.23,47.48 54.23,152.44 81.22,314.87l243.89 2681.68c0,40.5 -33.98,67.49 -101.69,81.22 -67.73,13.5 -114.97,-6.75 -142.2,-60.97 -352.11,-1110.56 -876.9,-1956.98 -1574.37,-2539.25 -697.48,-582.52 -1560.65,-873.65 -2589.99,-873.65 -1002.11,0 -1889.25,247.16 -2661.2,741.47 -771.94,494.31 -1374.7,1205.28 -1808.02,2133.14 -433.33,927.63 -650,2007.71 -650,3239.98 0,1219.01 230.17,2305.82 690.73,3260.46 460.33,954.86 1090.08,1696.32 1889.25,2224.6 798.94,528.06 1699.58,792.19 2701.69,792.19 988.61,0 1811.52,-260.65 2468.27,-782.18 656.75,-521.31 1235.76,-1350.73 1736.82,-2488.52 13.5,-40.49 54.22,-53.99 121.95,-40.49 67.73,13.5 101.46,33.74 101.46,60.97l-263.91 2417.3c-27.23,162.44 -54.22,267.4 -81.22,314.87 -27.22,47.47 -94.94,98.21 -203.16,152.43 -1219.01,501.05 -2519.01,751.47 -3900.45,751.47 -1435.68,0 -2722.18,-274.15 -3859.73,-822.68 -1137.55,-548.53 -2024.7,-1320.48 -2661.2,-2315.84 -636.5,-995.35 -954.86,-2136.39 -954.86,-3422.89 0,-1273 328.37,-2410.78 985.35,-3412.89 656.75,-1002.11 1560.88,-1784.3 2711.93,-2346.32 1151.05,-562.03 2444.53,-842.93 3879.97,-842.93zm16535.94 1909.5c0,-406.34 -40.5,-707.72 -121.72,-904.13 -81.45,-196.19 -243.89,-335.13 -487.55,-416.35 -243.89,-81.22 -616.25,-121.95 -1117.31,-121.95 -40.72,0 -60.98,-40.49 -60.98,-121.95 0,-81.22 20.25,-121.71 60.98,-121.71l975.11 20.24c650,27 1225.53,40.72 1726.57,40.72 365.85,0 860.15,-13.72 1482.92,-40.72l1117.31 -20.24c40.72,0 60.97,40.49 60.97,121.71 0,81.46 -20.24,121.95 -60.97,121.95 -487.56,0 -846.41,37.24 -1076.58,111.71 -230.16,74.47 -385.86,206.66 -467.3,396.1 -81.22,189.67 -121.72,487.56 -121.72,893.9l0 9405.76c0,406.11 40.5,707.48 121.72,903.9 81.45,196.42 237.15,328.38 467.3,396.1 230.17,67.73 589.02,101.7 1076.58,101.7 40.72,0 60.97,40.5 60.97,121.71 0,81.22 -20.24,121.95 -60.97,121.95 -460.33,0 -832.69,-6.75 -1117.31,-20.24l-1482.92 -20.48 -1726.57 20.48c-243.89,13.5 -568.77,20.24 -975.11,20.24 -40.72,0 -60.98,-40.72 -60.98,-121.95 0,-81.21 20.25,-121.71 60.98,-121.71 514.55,0 890.4,-33.98 1127.31,-101.7 237.15,-67.71 396.1,-199.68 477.55,-396.1 81.22,-196.42 121.72,-497.79 121.72,-903.9l0 -9365.03zm-8024.07 4144.12l8897.71 0 0 528.27 -8897.71 0 0 -528.27zm-893.9 -4184.84c0,-406.34 -40.72,-704.22 -121.95,-893.9 -81.22,-189.43 -236.92,-321.62 -467.08,-396.1 -230.4,-74.46 -582.5,-111.71 -1056.33,-111.71 -27.23,0 -40.72,-40.49 -40.72,-121.95 0,-81.22 13.5,-121.71 40.72,-121.71l1076.57 20.24c623,27 1110.56,40.72 1462.68,40.72 474.05,0 1036.09,-13.72 1686.08,-40.72l1056.33 -20.24c27,0 40.74,40.49 40.74,121.71 0,81.46 -13.73,121.95 -40.74,121.95 -487.55,0 -849.91,40.72 -1086.81,121.95 -236.92,81.22 -399.59,220.16 -487.56,416.35 -87.97,196.41 -131.95,497.79 -131.95,904.13l0 9365.03c0,406.11 40.49,707.48 121.71,903.9 81.45,196.42 240.4,328.38 477.55,396.1 236.92,67.73 606.01,101.7 1107.07,101.7 27,0 40.74,40.5 40.74,121.71 0,81.22 -13.73,121.95 -40.74,121.95 -460.56,0 -819.41,-6.75 -1076.57,-20.24l-1665.83 -20.48 -1482.92 20.48c-257.39,13.5 -616.25,20.24 -1076.81,20.24 -27,0 -40.5,-40.72 -40.5,-121.95 0,-81.21 13.5,-121.71 40.5,-121.71 487.56,0 846.41,-33.98 1076.81,-101.7 230.16,-67.71 385.86,-199.68 467.08,-396.1 81.22,-196.42 121.95,-497.79 121.95,-903.9l0 -9405.76zm17572.03 9405.76c0,419.83 37.23,724.47 111.71,914.14 74.47,189.43 216.66,318.14 426.58,385.86 209.92,67.73 545.05,101.7 1005.6,101.7 40.72,0 60.98,40.5 60.98,121.71 0,81.22 -20.25,121.95 -60.98,121.95 -433.33,0 -778.7,-6.75 -1036.09,-20.24l-1503.16 -20.48 -1462.67 20.48c-257.39,13.5 -609.51,20.24 -1056.33,20.24 -40.72,0 -60.98,-40.72 -60.98,-121.95 0,-81.21 20.25,-121.71 60.98,-121.71 460.33,0 795.67,-33.98 1005.59,-101.7 209.93,-67.71 355.37,-199.68 436.59,-396.1 81.45,-196.42 121.95,-497.79 121.95,-903.9l0 -9405.76c0,-406.34 -40.5,-704.22 -121.95,-893.9 -81.22,-189.43 -226.67,-321.62 -436.59,-396.1 -209.92,-74.46 -545.26,-111.71 -1005.59,-111.71 -40.72,0 -60.98,-40.49 -60.98,-121.95 0,-81.22 20.25,-121.71 60.98,-121.71l1056.33 20.24c595.77,27 1083.33,40.72 1462.67,40.72 419.83,0 927.63,-13.72 1523.42,-40.72l1015.83 -20.24c40.72,0 60.98,40.49 60.98,121.71 0,81.46 -20.25,121.95 -60.98,121.95 -446.82,0 -778.7,40.72 -995.36,121.95 -216.66,81.22 -362.35,220.16 -436.82,416.35 -74.47,196.41 -111.71,497.79 -111.71,904.13l0 9365.03zm8938.21 1726.57c-419.83,0 -914.13,-20.24 -1482.91,-60.97 -203.17,-13.5 -460.56,-27 -771.95,-40.5 -311.38,-13.5 -656.74,-20.48 -1036.09,-20.48l-1442.18 20.48c-257.39,13.5 -616.25,20.24 -1076.81,20.24 -27,0 -40.5,-40.72 -40.5,-121.95 0,-81.21 13.5,-121.71 40.5,-121.71 460.56,0 795.69,-33.98 1005.6,-101.7 209.92,-67.71 355.6,-199.68 436.82,-396.1 81.22,-196.42 121.95,-497.79 121.95,-903.9l0 -9405.76c0,-406.34 -37.24,-704.22 -111.71,-893.9 -74.71,-189.43 -220.16,-321.62 -436.82,-396.1 -216.68,-74.46 -548.54,-111.71 -995.36,-111.71 -27.23,0 -40.72,-40.49 -40.72,-121.95 0,-81.22 13.5,-121.71 40.72,-121.71l1076.57 20.24c595.77,27 1069.84,40.72 1421.94,40.72 528.28,0 1076.82,-20.48 1645.59,-60.97 676.99,-27.23 1130.8,-40.72 1360.97,-40.72 1381.44,0 2606.96,270.88 3677.03,812.66 1069.84,541.78 1899.26,1279.75 2488.51,2214.13 589.02,934.62 883.66,1984.2 883.66,3148.76 0,1313.72 -304.86,2475.02 -914.14,3484.1 -609.51,1008.86 -1428.92,1787.55 -2458.03,2336.08 -1029.34,548.53 -2160.14,822.68 -3392.65,822.68zm-203.16 -406.33c934.61,0 1764.05,-223.42 2488.51,-670.25 724.69,-447.06 1289.98,-1107.31 1696.32,-1980.71 406.34,-873.41 609.51,-1919.74 609.51,-3138.51 0,-1164.78 -192.93,-2217.63 -579.02,-3159 -386.08,-941.13 -931.13,-1686.08 -1635.34,-2234.6 -704.22,-548.54 -1523.65,-822.69 -2458.03,-822.69 -582.28,0 -1025.84,33.75 -1330.49,101.48 -304.86,67.71 -531.77,193.15 -680.71,375.84 -148.94,182.93 -223.41,463.82 -223.41,843.16l0 9141.38c0,555.29 145.68,951.38 436.82,1188.53 291.14,236.91 849.91,355.37 1675.85,355.37z"/>
   <path class="fil1" d="M29015.6 41649.01l-11981.48 12272.49 -12272.5 -11981.48c3503.36,-3588.42 6861.3,-7099.39 10380.83,-10675.29l-3341.59 -3272.56 -10313.94 10151.34 -472.22 -481.1c-1293.16,-1317.51 -1188.09,-1298.57 -131.82,-2209.49 232.68,-200.72 511.68,-446.68 832.07,-761.98l579.07 -569.94 9480.6 -9331.16 4981.64 4835.16 4822.13 -4883.98 11005.5 10786.54c1114.97,1092.89 1108.37,706.74 -7.86,1843.86l-685.34 698.24 -10269.52 -10107.61 -3221.15 3272.75c3556.15,3482.71 7054.28,6937.43 10615.58,10414.23zm-12233.49 -8732.53l8984.52 8771.47 -8771.47 8984.52 -8984.52 -8771.47 8771.47 -8984.52z"/>
   <path class="fil1" d="M12502.94 37408.78l8771.41 0 0 8771.47 -8771.41 0 0 -8771.47zm1721.35 1721.35l5328.71 0 0 5328.71 -5328.71 0 0 -5328.71z"/>
   <path class="fil1" d="M1150.34 14732.39l1150.34 0 0 14704.72c0,632.87 -517.47,1150.34 -1150.34,1150.34l-1150.34 0 0 -14704.72c0,-632.86 517.48,-1150.34 1150.34,-1150.34z"/>
   <path class="fil1" d="M8735.13 8117.06l1150.34 0 0 14704.72c0,632.86 -517.48,1150.34 -1150.34,1150.34l-1150.34 0 0 -14704.72c0,-632.86 517.47,-1150.34 1150.34,-1150.34z"/>
   <path class="fil1" d="M16802.58 0l0 0c632.86,0 1150.34,517.47 1150.34,1150.34l0 19380.9 -2300.68 0 0 -19380.9c0,-632.87 517.47,-1150.34 1150.34,-1150.34z"/>
   <path class="fil1" d="M23459.03 8135.69l1150.34 0c632.87,0 1150.34,517.48 1150.34,1150.34l0 14704.72 -1150.34 0c-632.86,0 -1150.34,-517.48 -1150.34,-1150.34l0 -14704.72z"/>
   <path class="fil1" d="M31106.04 14619.48l1150.34 0c632.86,0 1150.34,517.47 1150.34,1150.34l0 14704.71 -1150.34 0c-632.87,0 -1150.34,-517.47 -1150.34,-1150.34l0 -14704.71z"/>
  </g>
 </g>
</svg>
