<?xml version="1.0" encoding="UTF-8"?>
<!DOCTYPE svg PUBLIC "-//W3C//DTD SVG 1.1//EN" "http://www.w3.org/Graphics/SVG/1.1/DTD/svg11.dtd">
<!-- Creator: CorelDRAW -->
<svg xmlns="http://www.w3.org/2000/svg" xml:space="preserve" width="393.963mm" height="379.582mm" version="1.1" style="shape-rendering:geometricPrecision; text-rendering:geometricPrecision; image-rendering:optimizeQuality; fill-rule:evenodd; clip-rule:evenodd"
viewBox="0 0 9982.97 9618.57"
 xmlns:xlink="http://www.w3.org/1999/xlink"
 xmlns:xodm="http://www.corel.com/coreldraw/odm/2003">
 <defs>
  <style type="text/css">
   <![CDATA[
    .fil0 {fill:#2B2B2A}
   ]]>
  </style>
 </defs>
 <g id="Слой_x0020_1">
  <metadata id="CorelCorpID_0Corel-Layer"/>
  <g id="_105553237525408">
   <path class="fil0" d="M9070.47 8646.64c0.82,40.53 34.58,-13.63 87.65,84.17 63.13,116.1 350.58,844.33 369.7,860.44 4.76,4.02 6.59,4.85 14.45,4.48 13.54,-0.55 10.79,-1.92 14.82,-8.24l165.68 -492.84c28.91,-86.82 58.92,-176.11 88.56,-262.39 20.95,-60.84 71.27,-150.59 137.6,-165.96 19.85,-4.57 27.54,2.56 29.64,-16.19 -12.53,-12.99 -107.13,-2.11 -148.39,-2.11l-134.12 -4.21c-19.12,2.56 -5.95,-3.02 -15.28,6.31 4.21,29.92 37.88,-4.03 78.77,43.09 57.46,66.33 -11.16,204.11 -39.8,288 -41.81,122.59 -84.53,248.3 -126.89,369.79 -14.46,-21.13 -109.24,-256.53 -129.27,-302.73 -22.87,-52.51 -121.49,-270.53 -121.31,-315.36 0.18,-39.43 26.44,-62.58 61.57,-67.88 25.07,-3.75 28.91,4.85 26.99,-18.94 -8.97,-4.12 -237.59,1.92 -270.8,2.01 -17.66,-0.09 -82.25,-8.88 -89.57,-1.46zm-8791.92 -1.46c-79.14,5.86 -158.37,0.91 -237.59,-1.1 -6.86,-0.18 -59.65,-1.56 -33.94,16.1 23.51,16.1 90.02,-22.96 96.33,84.44 5.76,99.81 0.73,359.82 0.73,477.11 0,78.86 0.27,157.73 0.09,236.59 -0.36,145.92 -60.2,99.17 -94.87,114.27 -6.04,2.65 -7.04,-8.05 -7.14,8.51 -0.27,17.93 1.56,6.49 7.04,8.78 2.84,1.28 213.08,-1.83 240.7,-0.55 74.65,3.57 153.88,13.91 228.35,2.38 245.28,-37.97 417.64,-277.94 374.46,-570.33 -21.5,-144.46 -97.07,-235.4 -180.69,-296.6 -105.85,-77.49 -238.23,-91.12 -393.48,-79.6zm82.8 31.47c-128.27,11.34 -105.48,54.89 -105.48,225.79 0,110.43 0,220.76 0,331.18 0,72.55 -15.09,265.4 27.17,301.91 27.81,23.88 94.05,28.45 139.61,24.25 230.36,-21.32 294.95,-314.44 257.72,-551.3 -14,-88.56 -46.66,-179.59 -92.22,-235.4 -49.04,-60.2 -111.8,-106.58 -226.8,-96.43zm584.97 -32.02l-1.74 13.36c22.96,18.39 76.12,-10.16 93.13,44.37 13.72,44.19 6.68,608.76 6.68,696.77 0,123.97 10.79,167.15 -75.11,171.63 -0.18,0 -13.9,0.73 -13.9,0.82 -12.63,3.2 -7.78,-2.1 -13.54,8.97 4.67,10.89 -1.01,11.34 37.42,10.06l276.11 -0.18c51.69,1.46 35.86,3.84 41.26,-9.88 -7.69,-15.83 -23.15,-5.49 -55.53,-13.27 -56.54,-13.63 -43.91,-96.88 -43.91,-168.15 0,-93.41 -0.09,-186.91 0,-280.32l105.48 -0.46c16.56,25.43 30.83,57.09 44.37,82.7 16.01,30.37 30.1,53.61 45.93,83.89 30.28,57.91 63.77,110.43 96.61,163.85 21.13,34.49 84.72,130.09 115.82,140.25 16.56,5.4 240.89,4.67 252.14,-0.64 1.56,-25.16 -9.24,-14.55 -36.32,-21.68 -39.52,-10.43 -81.33,-44.1 -107.13,-70.44 -87.55,-89.66 -173.55,-239.79 -240.79,-350.49 -13.91,-22.78 -34.95,-55.9 -44.01,-78.5 49.95,-29.55 107.68,-95.6 127.99,-170.62 11.16,-41.26 11.99,-89.29 -1.64,-128.9 -62.03,-178.59 -339.23,-116.37 -461.92,-119.85 -41.44,-1.19 -109.69,-7.87 -147.39,-3.29zm250.86 426.33c37.23,9.79 106.86,10.89 141.25,-2.56 39.16,-15.28 54.44,-44.92 62.85,-90.85 13.72,-75.38 13.17,-207.86 -29,-263.12 -20.58,-26.9 -59.29,-49.4 -112.9,-40.9 -49.49,7.69 -59.47,39.8 -61.84,92.4 -4.3,98.16 -0.46,205.75 -0.36,305.02zm729.52 358.99c-46.29,13.63 -68.8,55.53 -57,111.8 9.52,44.56 48.85,76.57 103.75,63.31 93.41,-22.6 74.74,-210.97 -46.75,-175.11zm155.62 -779.84c5.21,35.13 28.36,-10.61 95.88,54.71 58.46,56.72 50.04,44.92 49.95,102.92 -0.18,101.28 0,202.46 0,303.65 0,98.07 4.21,205.75 -0.28,302.73 -2.65,58 -25.89,123.78 -77.49,146.84 -8.78,3.84 -19.03,7.04 -30.37,8.69 -23.33,3.29 -22.6,-3.57 -24.89,14.82 7.32,7.59 10.06,6.95 31.38,6.22l259.27 -2.1c-0.46,-25.25 -5.86,-14.09 -32.84,-21.59 -104.11,-28.73 -82.43,-220.48 -82.43,-305.84 0,-148.12 -0.09,-296.33 0,-444.54 16.19,10.89 142.63,174.74 164.68,203.01l440.51 556.88c21.41,26.9 26.35,43.82 45.74,41.9 12.35,-47.02 -6.86,-690.18 4.21,-812.22 6.04,-66.42 32.02,-129.91 98.81,-141.62 19.03,-3.29 17.57,2.74 19.67,-14.45 -12.72,-13.54 -113.17,-2.11 -136.87,-2.01 -30.83,0.27 -116.92,-10.34 -138.05,-2.01 -2.29,37.14 18.94,0.73 61.3,37.24 15.92,13.63 29.92,32.75 39.16,59.56 18.85,54.98 13.9,121.77 13.9,183.16 0,132.11 0.28,264.21 0,396.23l-10.79 -10.98c-61.66,-72 -169.89,-220.21 -234.94,-301.09l-162.3 -208.41c-146.01,-184.89 -85.36,-159.01 -206.94,-156.53l-165.96 -1.74c-19.67,1.01 -16.74,3.29 -20.31,6.59zm992.54 930.42c5.76,18.39 19.03,10.89 68.89,10.89 84.72,0 542.89,5.31 553.41,-5.49 10.89,-20.49 6.59,-91.4 8.6,-120.49 1.46,-22.69 13.54,-103.47 5.76,-117.01 -20.31,-0.64 -8.32,-7.59 -25.62,36.96 -16.83,43.37 -42.72,85.08 -78.22,111.07 -59.47,43.55 -115.82,52.51 -203.93,51.6 -42.82,-0.46 -65.05,-11.07 -73.1,-51.78 -6.95,-34.68 -5.21,-340.33 -3.11,-374.55 43.46,-7.68 157.54,-2.1 196.06,11.99 28.45,10.34 47.76,27.17 60.47,45.93 32.75,48.49 5.4,73.47 32.75,76.39 7.77,-9.79 0.64,-178.12 1.83,-223.59 0.27,-13.08 0.09,-26.26 0.27,-39.43 0.09,-3.84 0.46,-16.74 0,-19.76l-6.04 -16.28c-25.25,8.69 8.69,77.22 -92.58,109.14 -51.69,16.29 -134.94,10.61 -193.22,10.7 0.09,-75.11 0,-150.4 0,-225.61 0,-75.48 -14.91,-154.43 65.05,-162.03 69.07,-6.49 143,3.11 186.54,38.52 34.03,27.63 51.96,56.63 67.06,98.53 14.64,40.99 2.2,34.95 22.42,37.24 12.17,-15.01 2.01,-210.15 0.27,-217.65 -26.07,-6.77 -453.68,-2.56 -532.55,-2.65 -9.51,0 -48.85,-1.65 -54.8,1.46 -5.21,2.74 -2.65,-8.05 -5.49,6.49 -2.65,12.9 -8.14,10.43 30.1,12.81 83.53,5.58 69.62,72.18 69.62,147.84l0 650.47c0.09,103.38 -17.11,102.74 -80.05,108.59 -25.43,2.38 -14,-3.2 -20.4,9.7zm1792.05 -922.56c-1.56,-26.81 -34.58,-11.89 -102.83,-11.89 -93.23,0.09 -120.76,-16.47 -140.71,32.66 -12.63,30.92 -24.61,63.22 -36.69,93.59l-148.76 379.4c-23.33,59.74 -46.75,128.81 -74.01,186.36l-273.09 -566.58c-16.01,-34.03 -29.09,-61.21 -47.21,-94.6 -26.8,-49.04 -35.68,-30.83 -111.34,-30.83l-134.49 -2.65c-13.72,1.1 -23.51,6.86 -9.97,16.92 15.83,11.89 57.91,-11.25 113.63,91.58 20.22,37.14 9.61,101.83 8.33,146.93l-9.15 484.61c-0.64,47.66 -5.76,96.7 -29,132.38 -14,21.5 -18.85,29.37 -40.8,42.08 -43.82,25.34 -53.34,-1.46 -57.09,26.53 8.23,7.78 -2.47,1.83 9.33,5.12l270.07 -1.37c1.01,-0.46 2.19,-1.37 3.11,-1.83 0.82,-0.27 2.11,-1.19 2.93,-1.92 -4.48,-27.45 -8.69,-2.84 -49.4,-22.32 -59.1,-28.27 -71.18,-102.37 -70.54,-166.96l10.8 -533.19c18.11,15.09 274.55,574.72 305.02,636.39 45.01,91.03 46.2,123.6 75.38,46.66l123.6 -321.85c24.43,-65.6 119.76,-319.84 142.54,-366.87l29.55 633.46c2.1,89.66 -36.14,69.07 -101.09,84.08l-0.55 14.64c4.57,1.83 309.59,2.65 346.19,3.02 54.98,0.36 115.27,-8.05 173.37,-6.68l126.8 5.76c22.05,1.01 28.45,5.03 29.55,-14 -11.07,-8.33 -60.93,-6.31 -93.96,-30.83 -24.61,-18.39 -39.71,-47.21 -39.71,-91.49 0.09,-51.05 34.4,-120.95 52.61,-165.13 10.34,-25.34 50.04,-140.62 66.6,-151.14l228.72 0c12.81,0 22.51,31.75 31.38,52.33 33.48,76.85 112.62,236.22 134.49,299.16 7.23,20.4 17.11,50.5 3.66,67.24 -11.71,14.64 -38.79,12.54 -48.49,14.27 -19.49,3.57 -8.97,-4.49 -16.56,9.51 6.77,18.3 31.56,10.16 76.85,7.59 30.56,-1.83 59.92,-3.75 90.76,-3.29 34.4,0.46 151.87,12.44 171.99,2.38 0,-23.88 -13.72,-11.71 -36.5,-23.88 -11.8,-6.22 -25.52,-21.04 -33.12,-30.1 -54.16,-64.23 -329.63,-703.72 -404.37,-857.24 -5.49,-11.34 -12.26,-37.14 -22.87,-41.26 -21.5,-8.32 -24.88,14 -31.2,29.92 -48.67,121.86 -98.44,239.24 -147.75,360.92 -48.49,119.94 -97.71,238.78 -146.47,358.17 -20.49,50.14 -60.29,136.32 -90.66,161.57 -22.97,19.3 -57.82,28.45 -97.71,25.34 -43.27,-3.39 -59.1,-17.02 -66.14,-58.74 -9.97,-59.56 -31.29,-610.95 -36.69,-719.91 -3.11,-63.31 8.51,-106.49 65.51,-123.05 26.17,-7.5 43.91,-2.19 56.17,-10.98zm332.37 435.94l202 0.64 -105.39 -234.76 -96.61 234.12zm1011.76 -445.91c-59.83,0 -328.53,0.91 -368.15,-8.69 -48.85,-11.8 -17.2,-32.57 -46.57,-36.32l-15.09 236.31c-1.56,21.32 -12.44,64.13 0.09,78.5 10.89,-3.02 7.59,1.19 13.72,-13.63 2.47,-6.22 4.48,-15.74 7.32,-24.06 14,-40.25 35.68,-84.99 60.56,-116.83 34.77,-44.56 82.15,-83.44 162.76,-83.62 53.79,-0.09 60.11,30.83 60.11,80.87l0 713.51c0,32.57 -4.58,68.71 -25.16,82.34 -25.34,16.65 -60.56,10.06 -92.58,17.38 -0.28,11.53 -1.74,17.66 10.34,17.66 116.46,-0.09 227.16,-5.4 346.74,-0.82 23.33,0.82 30.28,8.05 31.29,-14 -35.59,-26.17 -116.83,31.38 -116.83,-98.53l0 -717.54c0,-60.75 14.09,-80.69 69.99,-80.78 118.48,-0.18 178.22,101.82 201.09,198.8 10.15,42.91 1.1,36.5 19.95,38.7 9.06,-16.56 4.48,-58.74 4.67,-81.88l11.34 -235.03c-29.73,-0.27 -7.69,27.17 -55.9,38.06 -25.71,5.76 -61.02,5.21 -86.91,5.76 -63.77,1.28 -129.27,3.84 -192.76,3.84zm404.01 932.53c4.48,10.89 -2.11,11.34 37.51,10.06l141.99 -2.47c170.53,-0.36 301.63,50.23 443.44,-96.34 89.57,-92.68 134.4,-369.24 -178.31,-433.19 53.34,-35.32 104.66,-45.56 145.01,-140.16 35.5,-82.98 10.98,-177.12 -40.44,-220.21 -105.94,-88.74 -253.51,-50.96 -369.7,-50.13l-162.48 -4.58c-18.48,2.29 -10.06,-3.2 -13.82,7.32 -5.67,15.19 9.33,11.98 20.68,12.99 21.41,1.74 42.08,4.3 55.35,15.64 26.62,22.96 22.32,86.36 22.32,124.33l0 583.51c0,98.9 16.56,176.29 -69.71,182.97 -2.01,0.09 -17.93,1.1 -18.12,1.19 -12.99,3.29 -8.05,-2.19 -13.72,9.06zm255.34 -476.1c0.09,120.4 -1.56,241.71 -0.09,361.92 0.91,69.44 18.48,90.57 89.75,91.58 218.93,3.11 202,-243.82 158.36,-344.73 -43.64,-101 -142.26,-129.64 -248.02,-108.78zm0 -48.49c106.22,13.08 157.63,-22.14 185.63,-105.03 25.43,-75.75 21.68,-186.82 -23.7,-239.06 -21.5,-24.7 -58.55,-42.73 -107.5,-37.69 -47.94,5.12 -53.43,39.98 -54.44,90.12 -1.92,96.33 0,194.96 0,291.66zm973.79 -426.52c-70.44,7.14 -129.36,25.25 -185.08,53.43 -165.5,83.9 -257.54,249.12 -252.51,455.97 6.59,267.69 192.67,493.85 475.28,468.32 168.34,-15.28 290.01,-117.38 360.82,-230.27 15.1,-24.06 28.64,-51.78 39.52,-78.77 25.62,-64.13 35.68,-126.34 35.13,-202.55 -2.1,-264.77 -197.34,-494.22 -473.17,-466.13zm-49.22 42.36c-279.49,43 -267.97,558.71 -116.92,778.01 171.72,249.39 521.11,115.55 465.94,-394.13 -19.76,-183.71 -120.94,-419.01 -349.02,-383.88zm606.1 -17.75c5.76,10.52 -0.55,4.12 10.24,8.05 1.56,0.55 11.62,1.56 13.72,1.65 90.11,5.95 76.57,46.84 76.57,171.63 0,87.19 6.4,653.13 -5.4,696.22 -9.24,33.76 -33.67,37.42 -67.7,39.16 -25.62,1.37 -22.6,0.82 -27.45,9.79 6.4,18.3 19.67,10.89 68.98,10.89 85.17,0 543.16,5.21 553.86,-5.03 10.52,-19.49 6.59,-92.31 8.6,-121.59 1.46,-22.6 13.36,-103.38 5.21,-116.37 -19.4,-0.27 -8.14,-6.86 -25.16,37.42 -48.94,126.98 -140.07,163.03 -278.49,162.21 -46.2,-0.27 -66.88,-7.87 -76.3,-48.85 -7.87,-34.4 -5.49,-351.95 -2.2,-379.03 93.59,0.09 241.62,-18.76 270.71,94.78 4.21,16.38 0.64,35.77 12.9,41.35 13.27,-5.03 9.61,-12.53 9.15,-30.37l-3.84 -118.48c-1.19,-36.32 8.23,-140.62 -5.31,-150.5 -16.65,7.14 -2.65,-10.34 -13.27,34.58 -9.06,37.69 -39.16,62.39 -79.32,74.56 -52.61,15.92 -133.57,10.7 -192.22,10.7 0,-75.2 0,-150.4 0,-225.61 0,-74.47 -16.01,-154.34 63.95,-162.03 103.01,-9.88 189.93,12.26 237.13,98.35 12.44,22.51 15.92,37.51 23.24,59.65 6.49,20.04 -0.64,14 15.64,16.38 13.27,-15.74 2.74,-208.78 0.55,-217.65 -42.81,-9.52 -447.83,-0.91 -564.57,-3.02 -20.68,-0.37 -24.43,-4.85 -29.28,11.16z"/>
   <path class="fil0" d="M4938.63 962.72c-19.21,-12.17 -53.43,-14.55 -75.2,-20.95 -24.15,-7.23 -46.84,-15.37 -70.08,-24.61 -128.63,-51.6 -242.81,-145.47 -330.27,-237.32 -16.37,-17.02 -29.37,-32.48 -45.65,-49.13 -9.7,-9.97 -14.91,-13.27 -23.51,-23.6 -50.32,-60.38 -105.39,-115.46 -156.44,-174.83 -44.28,-51.51 -96.15,-96.24 -145.83,-142.08 -594.3,-548.74 -1636.25,-211.34 -1923.61,579.39 -150.5,413.89 -90.75,895.93 51.05,1293.26 134.03,375.65 354.15,805.18 595.77,1111.3 29.09,36.87 57.36,69.53 84.9,104.48 27.35,34.77 61.75,66.15 90.94,98.35l100.09 92.95c152.6,120.86 323.68,231.19 541.88,220.03 292.12,-14.91 520.38,-238.6 678.47,-461.83 178.77,-252.32 526.05,-909.84 693.57,-1210.74 45.38,-81.51 85.54,-166.51 130.92,-247.65 148.48,-266.14 220.03,-399.53 404.83,-635.75 7.14,-9.24 14.09,-16.56 21.41,-25.89 62.39,-80.87 136.22,-150.68 213.53,-216.18 231.92,-196.42 518.37,-316.45 852.66,-272.72 436.21,57 698.87,328.9 744.16,777.82 22.23,220.85 -17.84,470.61 -82.61,666.21 -65.14,196.6 -147.84,355.43 -243.54,516.99 -116.19,195.87 -244.09,383.79 -395.32,551.03l-89.48 99.81c-30.74,34.03 -64.41,61.76 -93.96,95.24 -58,65.59 -233.2,206.03 -308.95,262.75 -70.63,52.97 -147.11,108.5 -226.16,156.26 -157.73,95.33 -312.89,185.35 -496.23,264.67 -369.61,159.83 -759.71,276.66 -1209.37,312.43 -235.49,18.75 -484.88,9.15 -710.22,-32.57 -124.51,-23.05 -290.11,-107.13 -366.31,-201 -19.67,-24.34 -61.94,-87.46 -54.89,-132.93 -43.18,241.53 164.68,380.68 326.33,448.93 189.74,80.05 439.69,111.34 664.56,114.08 484.97,5.95 910.39,-83.89 1331.6,-227.53 284.34,-97.07 545.81,-222.41 797.77,-373.09 181.14,-108.41 350.4,-231.55 508.39,-366.95 17.38,-14.91 36.41,-30.56 52.97,-45.65l50.87 -47.76c34.4,-31.2 161.84,-159.01 192.85,-197.34l46.02 -52.61c64.77,-68.16 119.3,-140.07 175.38,-214.81 207.95,-276.93 410.41,-623.58 538.68,-1022.65 132.57,-412.42 186.63,-924.29 1.28,-1319.16 -263.3,-561.09 -958.79,-862.63 -1552.91,-713.42 -258.08,64.86 -416.08,188.83 -593.29,329.35 -97.53,77.31 -228.63,231.01 -309.04,329.45 -29.37,35.77 -54.16,71.18 -82.89,110.33 -26.81,36.68 -55.17,77.4 -80.05,116.92 -86.64,137.5 -136.77,233.02 -211.88,371.71 -63.49,117.38 -133.75,277.66 -186.08,401.54 -77.86,184.07 -151.23,368.05 -228.35,552.13 -38.61,92.31 -77.95,183.34 -116.01,274.37 -38.15,91.12 -80.6,178.67 -120.49,269.8 -81.52,186.54 -157.82,360.09 -255.16,525.41 -81.7,138.78 -225.43,349.48 -395.32,385.25 -160.93,33.76 -282.42,-107.41 -364.67,-206.95 -29.64,-35.95 -57.45,-70.9 -88.01,-109.14 -115.36,-144.82 -216.28,-310.14 -304.47,-476.28 -179.68,-338.5 -367.96,-789.72 -371.44,-1188.69 -3.75,-431.55 160.56,-820.18 560.54,-999.77 200.72,-90.11 423.58,-122.32 666.67,-86.18 218.11,32.2 396.05,127.17 573.9,206.49 178.22,79.6 389,193.68 615.71,119.03zm-411.78 6278.5c-12.9,95.97 109.97,136.5 184.62,152.6 189.65,40.89 398.61,-10.34 549.84,-119.21 42.72,-30.74 154.89,-117.84 128.72,-208.59 -30.74,29.64 -14.73,29.18 -79.96,56.17 -115.55,47.94 -425.87,114.73 -553.5,136.41 -52.15,8.78 -176.84,34.67 -219.2,-5.95l-10.52 -11.44zm-336.31 -469.97c-21.77,156.08 234.94,216.37 349.3,230 170.44,20.31 370.07,0.36 530.44,-39.98 151.69,-38.24 301.63,-98.81 413.89,-173.46 78.77,-52.33 278.4,-189.47 249.03,-329.81 -41.53,68.89 -39.16,72.09 -128.45,123.23 -54.98,31.56 -114.81,56.36 -176.39,79.87 -124.97,47.76 -259.37,84.81 -395.87,116.55 -181.79,42.18 -487.35,103.29 -678.19,82.07 -77.67,-8.6 -136.96,-28.27 -163.76,-88.47zm-313.53 -555.51c-20.49,48.95 26.99,115.64 57.45,145.47 33.03,32.39 80.23,60.93 129.73,83.44 310.69,141.44 790.72,84.72 1104.43,3.93 284.71,-73.37 498.79,-183.07 704.91,-347.74 71.82,-57.45 157.91,-153.61 183.43,-242.35 17.57,-60.75 8.6,-130.28 -30.28,-163.58 6.41,65.96 8.78,87.64 -29,135.86 -30.65,39.16 -52.88,56.26 -97.62,87.83 -184.44,130.09 -581.58,255.71 -802.89,308.86 -203.28,48.85 -412.61,88.19 -626.23,110.97 -109.78,11.8 -241.8,18.66 -350.85,7.14 -88.19,-9.33 -191.48,-30.37 -233.57,-113.81l-9.51 -16.01zm2448.29 -1244.04c0.46,254.06 -673.71,487.17 -947.62,570.33 -404.1,122.68 -883.49,223.04 -1331.05,223.14 -99.63,0 -212.34,-10.16 -302.18,-37.78 -89.29,-27.63 -156.63,-70.17 -180.51,-158.82 -25.89,78.22 49.59,172 86.91,201.09 220.48,171.99 544.17,196.6 825.4,196.6 389.92,0.09 860.26,-117.65 1177.9,-254.33 250.95,-107.96 468.23,-242.07 635.75,-436.67 49.59,-57.45 109.14,-141.35 109.33,-248.2 0.18,-53.89 -18.02,-100.55 -44.56,-131.92 -16.47,-19.4 -69.35,-64.77 -102.1,-67.52 28.45,17.02 72.64,89.66 72.73,144.09zm-2420.66 83.8c-190.02,0 -419.47,-7.04 -572.53,-118.29 -63.04,-45.84 -65.05,-92.95 -84.35,-126.62 -26.07,203.38 200.9,321.94 359.36,379.85 236.49,86.27 497.51,101.64 754.86,101.64 474.91,0 1052.1,-142.26 1440.01,-311.42 304.56,-132.75 915.51,-460.73 915.6,-848.63 0,-106.86 -84.63,-192.12 -159.92,-220.39 4.58,10.43 18.3,22.41 26.26,32.84 11.07,14.36 16.56,22.69 24.89,38.15 52.7,98.07 21.86,189.65 -48.76,265.86 -333.93,360 -1297.29,615.8 -1767.9,703.72 -278.31,52.15 -594.76,103.29 -887.52,103.29zm2273.82 -1604.05c-54.34,38.24 -110.88,81.52 -207.22,75.66 -86,-5.21 -154.16,-38.7 -209.87,-76.94 -244.64,-167.88 -433.47,-633.37 -513.52,-925.49 -20.31,-74.1 -38.61,-152.42 -60.2,-225.43 -10.34,81.06 -0.18,223.51 7.41,305.66 25.8,277.02 87.83,491.1 220.67,725.5 68.25,120.49 177.49,262.38 331.28,299.53 132.84,32.11 268.7,-6.4 361.92,-92.77 35.04,-32.57 43.82,-48.58 69.53,-85.72zm-3847.86 -2701.53c46.11,20.13 87.37,12.35 159.19,77.85 64.96,59.19 72.28,135.49 82.34,155.25 28.09,-127.53 111.25,-213.35 242.9,-231.74 -72.09,-16.47 -122.32,-41.26 -162.66,-78.4 -38.33,-35.22 -63.86,-89.75 -82.25,-158.82 -16.29,126.53 -116.74,213.9 -239.51,235.86zm3423.64 -75.2c38.33,-17.93 110.98,-74.84 209.69,-117.19 81.42,-34.95 154.16,-62.3 248.2,-83.25 349.39,-78.13 771.42,2.74 1039.75,219.84 142.35,115.18 201.73,210.15 286.72,369.61 -9.15,-93.13 -128.36,-267.14 -187.37,-342.8 -34.85,-44.83 -86.45,-93.78 -131.19,-132.93 -112.62,-98.53 -265.04,-174.74 -412.61,-214.17 -200.54,-53.7 -433.47,-46.84 -621.02,19.85 -179.77,63.95 -257.9,131.74 -386.9,235.95 -9.7,7.78 -40.16,37.69 -45.29,45.1z"/>
   <path class="fil0" d="M12.4 8217.38l0 2.03c204.61,0 411.15,10.81 616.04,12.78 205.83,1.98 413.18,9.63 618.95,10.85 414.94,2.45 830.25,15.64 1245.84,16.69 207.68,0.52 414.62,6.23 622.97,5.96 101.63,-0.13 209.26,-0.21 311.4,2.72 103.51,2.97 210.36,-2.41 313.42,1.65 101.24,3.99 211.18,1.53 313.43,1.53l1888.45 0c102.33,0 212.14,2.43 313.5,-1.47 103.19,-3.98 209.8,1.24 313.35,-1.71 102.14,-2.91 209.79,-2.91 311.41,-2.73 209.89,0.37 417.88,-6.07 626.9,-5.94 413.93,0.25 828.48,-16.33 1241.88,-16.68 205.75,-0.18 413.17,-9.01 618.97,-10.88 203.67,-1.85 410.74,-13.06 614.04,-13.8 -203.78,-1.81 -410.28,-9.1 -614.02,-12.92 -206.29,-3.87 -415.41,-3.5 -621.58,-10.98 -410.06,-14.89 -828.16,-4.03 -1239.29,-17.04 -207.25,-6.56 -415.61,0.61 -622.91,-5.96 -204.65,-6.49 -420.48,-4.35 -626.85,-4.34 -417.9,0.02 -838.4,-2.94 -1257.65,-2.94 -417.88,0 -837.56,2.95 -1253.71,2.94 -207.58,-0.01 -420.95,-0.79 -626.85,4.08 -209.19,4.95 -418.04,0.12 -626.85,6.01 -412.29,11.63 -828.44,2.24 -1241.08,16.77 -204.68,7.21 -413.55,4.76 -619.77,10.95 -203.27,6.1 -416.33,12.42 -619.99,12.42z"/>
  </g>
 </g>
</svg>
