<?xml version="1.0" encoding="UTF-8"?>
<!DOCTYPE svg PUBLIC "-//W3C//DTD SVG 1.1//EN" "http://www.w3.org/Graphics/SVG/1.1/DTD/svg11.dtd">
<!-- Creator: CorelDRAW -->
<svg xmlns="http://www.w3.org/2000/svg" xml:space="preserve" width="180.621mm" height="99.9063mm" version="1.1" style="shape-rendering:geometricPrecision; text-rendering:geometricPrecision; image-rendering:optimizeQuality; fill-rule:evenodd; clip-rule:evenodd"
viewBox="0 0 1075.27 594.76"
 xmlns:xlink="http://www.w3.org/1999/xlink"
 xmlns:xodm="http://www.corel.com/coreldraw/odm/2003">
 <defs>
  <style type="text/css">
   <![CDATA[
    .fil2 {fill:#D5CED2}
    .fil1 {fill:#E5E2E5}
    .fil0 {fill:#FDFDFD}
   ]]>
  </style>
 </defs>
 <g id="Слой_x0020_1">
  <metadata id="CorelCorpID_0Corel-Layer"/>
  <g id="_105553236613472">
   <path class="fil0" d="M117.59 256.08c-0.15,2.32 -1.66,10.7 -1.46,14.06l0.7 32.44c-0.01,5.43 -0.82,9.35 -0.81,15.72 0.01,7.49 0.43,43.29 -0.46,49.16 -0.79,5.2 0.16,10.83 -0.55,15.99 -1.24,9.07 -0.89,20.46 -2.29,30 -2.11,14.4 -4.62,59.21 -23.23,67.34 -7.04,3.07 -8.48,2.11 -17.58,2.11 -7.5,0 -16.54,-10.06 -16.54,-22.84 0,-33.96 19.69,-52.68 19.69,-61.43 0,-7.44 -20.16,-1.24 -29.71,0.22 -2.98,0.45 -8.83,1.64 -10.57,1.92 -6.88,1.1 -24.47,4.21 -30.18,7.74 -11.33,7.02 0.65,41.38 9.91,53.82 24.41,32.82 60.16,33.43 97.57,23.73 2.7,-0.7 5.13,-1.5 7.75,-2.48 2.14,-0.8 4.97,-1.76 7.44,-2.8 4.94,-2.08 9.52,-4.48 13.98,-7.28 4.37,-2.74 8.54,-4.88 12.56,-7.92 17.51,-13.24 26.83,-25.29 38.26,-44.43 11.39,-19.06 14.44,-57.01 14.47,-78.42 0.01,-4.67 0.8,-5.82 0.85,-10.23 0.14,-13.77 1.54,-25.8 1.54,-40.19 0,-42.57 2.88,-37.09 -9.45,-37.02l-36.23 0c-23.76,0.05 -17.69,-1.54 -45.68,0.79z"/>
   <path class="fil0" d="M731.89 2.48c-1.74,7.29 -0.53,6.85 6.57,9.97 3.6,1.58 6.48,2.63 9.8,4.37 4.91,2.57 18.28,7.31 18.28,10.86l0.03 79.57c-0.01,6.06 -1.77,10.65 -0.57,19.47l-0.24 32.48c0,4.91 7.56,2.99 10.24,2.36 1.73,-3.6 1.01,-2.76 0.83,-7.06l-0.8 -27.62c-0.02,-11.41 -2.9,-18.83 1.7,-29.75 0.87,-2.06 0.76,-0.81 1.42,-3.3 3.42,0 4.13,-0.12 5.99,1.89 0.25,0.27 1.22,1.62 1.72,2.21l49.42 61.63c4.03,3.43 23.9,2 31.86,2 33.15,0 63.74,-0.79 96.87,-0.79 -0.08,-3.45 0.14,-2.94 -4.14,-7.67l-113.88 -144.44c-5.9,-7.33 -5.94,-6.98 -18.23,-6.97l-86.6 -0.05c-5.14,-0.45 -5.57,-1.5 -10.27,0.83z"/>
   <path class="fil0" d="M290.07 1.69c-0.23,2.72 -3.39,6.93 5.37,10.38 2.91,1.14 5.67,2.28 9.11,3.5l17.55 7.65c9.05,4.26 5.83,3.49 12.65,12.56l20.7 29.71c13.83,19.48 26.44,40.4 41.41,60.19l10.24 14.95c15.8,21.53 7.56,20.15 31.05,20.15 22.91,0 24.29,1.32 48.83,-0 5.75,-0.31 19.65,-0.45 24.87,0.34 4.32,0.65 7.82,0.12 12.11,0.5 12.23,1.09 11.84,-0.28 4.2,-10.51l-78.87 -112.51c-1.34,-1.81 -1.53,-2.3 -2.83,-4.26 -2.29,-3.44 -4.37,-4.29 -4.37,-9.8 2.59,-0.69 13.44,-9.71 21.3,-14.14 6.22,-3.5 3.48,-9.49 -0.04,-9.49 -18.65,0 -168.18,-1.19 -173.26,0.79z"/>
   <path class="fil0" d="M489.32 256.86l64.62 91.31c12.57,19.66 15.6,16.94 6.37,23.78l-13.85 9.78c-6.64,4.4 -7.21,10.33 -0.53,10.66 16.91,0.83 47.34,-1.4 63.83,-0.04 7.95,0.66 98.53,2.15 107.94,-0.04 0,-11.23 -1.35,-8.21 -17.98,-15.88 -9.23,-4.26 -16.58,-5.12 -22.08,-12.58 -3.44,-4.67 -6.43,-8.87 -10.01,-13.62l-57.04 -80.79c-1,-1.4 -1.43,-1.69 -2.48,-3.03 -0.91,-1.15 -1.46,-2.17 -2.24,-3.27 -8.14,-11.4 -8.49,-7.87 -27.57,-7.87 -21.62,0 -59.49,0.77 -80.36,0.02 -3.69,-0.13 -8.63,-2.56 -8.63,1.55z"/>
   <path class="fil0" d="M112.87 23.3c8.29,-0.56 6.53,2.58 6.56,10.68l0.02 54.35c0.14,23.32 -1,48.3 0.05,71.36l43.77 -0.81c49.61,-0.21 45.98,5.34 45.79,-13.84l-0.2 -107.9 0.25 -8.51c0.94,-4.59 4.85,-5.11 10.48,-7.63 4.07,-1.82 7.8,-2.94 11.97,-4.57 5.43,-2.12 14.52,-4.23 15.73,-8.77 0.89,-3.35 -0.66,-3.89 -1.33,-6.75l-155.15 0c-4.41,-0.01 -10.29,-0.91 -12.38,1.86 -6.16,8.15 16.22,13.1 24.14,16.38l10.29 4.15z"/>
   <path class="fil0" d="M1024.08 392.33c5.51,0 14.18,1.4 14.18,-3.94l0 -129.95c0,-2.77 -3.49,-3.15 -6.3,-3.15l-118.13 0c0.11,4.74 3.19,6.61 5.4,9.56l20.76 25.7c7.52,8.55 18.41,24.24 27.56,34.65l33.58 42.81c2.46,3.07 4.33,5.68 6.85,8.9 1.55,1.98 2.2,2.54 3.61,4.26 2.92,3.58 7.05,11.14 12.48,11.14z"/>
   <path class="fil0" d="M558.17 122.19c-0.32,7.93 -0.89,4.3 -2.39,8.9l-2.88 8.9c-1.39,3.22 -0.99,5.32 -2.45,8.83l-3.39 8.8 3.5 1.18c1.49,0.38 1.55,0.31 3.34,0.86 0.15,-0.21 0.27,-0.82 0.32,-0.7l3.42 -10.25c0.11,-0.19 0.54,-0.66 0.66,-0.85 0.09,-0.14 0.24,-0.32 0.33,-0.47l5.63 -13.34c2.26,-4.25 4.15,-9.45 6.02,-11.26 1.84,-1.78 -1.12,-0.66 2.51,-1.45l20.71 -35.16c4.53,-7.51 14.31,-18.61 20.37,-25.31 4.31,-4.76 9.05,-9.65 14.15,-13.41 18.55,-13.67 15.2,-13.02 40.33,-24.25 9.08,-4.06 9.91,-3.68 17.48,-6.15 7.6,-2.48 27.41,-6.09 31.87,-9.08 0,-8.71 0.51,-7.09 -16.54,-7.09 -25.74,0 -166.21,-0.84 -168.64,0.72 -2.89,1.85 -2.14,6.08 1.58,7.25 5.09,1.6 19.38,2.67 29.94,6.29 40,13.7 -7.46,96.08 -5.9,107.04z"/>
   <path class="fil0" d="M944.54 4.06c0,5.18 14.02,10.15 18.5,12.22 3.8,1.76 6.33,3.23 10.08,4.89 3.89,1.72 5.9,3.3 9.76,5.2 2.25,1.1 2.54,1.27 4.43,2.65l2.78 2.05c0.13,0.11 0.31,0.26 0.44,0.37 1.75,1.53 -0.04,-0.1 1.18,1.16 2.7,2.78 4.62,4.69 7.07,7.8 5.81,7.35 8.08,9.99 11.58,18.34 8.09,19.27 9.55,41.32 12.08,62.74 0.51,4.33 0.64,9.15 1.31,13.65 0.71,4.76 -0.08,9.69 0.54,14.42 1.7,12.88 -1.8,11.24 15.54,11.24 4.26,0 3.17,-16.8 3.15,-20.48l1.37 -23.05c0.91,-6.65 0.78,-15.75 0.98,-22.65 0.43,-15.23 6.7,-61 15.88,-73.91 0.97,-1.37 1.47,-2.23 2.58,-3.72 1.8,-2.42 3.69,-4.25 5.98,-5.84 2.57,-1.79 5.52,-2.66 5.52,-7.08 0,-5.6 -14.72,-3.15 -18.9,-3.15l-59.08 0.01c-5.06,0.03 -6.8,-0.7 -10.99,-0.82 -7.45,-0.22 -15.36,0.03 -22.87,0.03 -5.64,0 -18.9,-1.04 -18.9,3.94z"/>
   <path class="fil0" d="M406.63 320.65c-1.6,0.1 -2.43,1.81 -5.05,5.19 -6.68,8.6 -21.42,21.59 -31.33,27.74 -25.37,15.76 -42.55,21.57 -71.73,28.29 -7.49,1.72 -8.45,1.28 -8.45,9.66 6.7,3.22 20.59,1.58 29.93,1.58 48.85,0 103.04,0.82 151.29,0.08 9.4,-0.14 5.85,-9.13 -3.35,-10.2 -29.01,-3.4 -27.52,-9.03 -35.33,-12.43 -5.44,-1.76 -5.04,-6.63 -6.04,-9.26 -1.63,-4.28 -2.04,-2.69 -1.55,-12.36 0.29,-5.72 0.93,-2.31 2.22,-5.57 1.82,-4.6 -1.47,-6.44 1.19,-10.45 0.09,-0.14 0.28,-0.28 0.38,-0.43 2.03,-3.07 0.94,-3.6 1.19,-7.9 1.26,-0.59 -1.78,0.68 0.72,-0.11l0.97 -0.4c0.07,-0.25 0.41,-0.17 0.6,-0.27 0.24,-10.08 0.13,-3.71 1.72,-8.87l2.17 -8.32c1.06,-3.16 1.64,-3.64 1.76,-7.22l-2.37 0c2.18,-3.38 0.42,-8.29 -2.17,-11.02l-2.64 4.49c-0.58,3.06 -2.22,3.67 -2.22,3.66 -0.1,-0.17 -0.42,0.32 -0.62,0.5l0.01 4.73c-2.72,0.12 -2.18,0.15 -3.94,0.82l1.54 3.12c-1.98,2.47 -1.55,-0.75 -3.25,2.49 -1.2,2.28 -0.49,2.5 0.13,5.31l2.33 -1.63c0.21,-0.21 0.32,-0.37 0.5,-0.58 0,-0 0.62,-1.29 0.79,-1.55 0.89,-1.33 -0.65,-0.81 1.88,-0.91l-0.02 3.95 -2.34 1.4c-3.51,2.06 -2.97,0.58 -4,2.57 1.44,-0.79 -1.7,-5.96 -2.39,-7.84 -4.53,2.03 -1.01,-0.15 -3.8,3.33l-5.02 5.72c-2.62,3.15 0.86,1.65 -3.71,2.69z"/>
   <path class="fil0" d="M860.27 391.23l0 -5.99c-9.5,-5.03 -27.47,-11.66 -34.33,-16.86 -2.41,-1.82 -4.78,-3.7 -6.84,-5.76l-15.32 -21.63c-0.88,-1.22 -0.26,-0.52 -1,-1.11l-2.29 -0.11c-0.82,-4.68 -9.9,-24.52 -11.01,-37.05 -0.39,-4.46 -1.23,-2.9 -2.11,-5.19 -0.93,-2.42 -0.23,-4.97 -0.16,-7.59 -0.4,-1.98 -1.54,-1.09 -2.25,-3.37 -0.52,-1.67 -0.3,-2.88 -0.26,-4.51 0.17,-7.46 -0.65,-3.78 -1.86,-7.46 -1.74,-5.29 0.69,-13.44 -2.5,-17.32 -2.9,-1.96 -11.68,-0.51 -15.78,-0.7l-1.57 56.9c-0.06,0.17 -0.16,0.36 -0.23,0.54 -2.05,5.9 -1.27,7.18 -0.43,10.4 0.37,1.4 0.28,1.72 0.28,3.32 -0.54,-1.29 0.94,-0.62 -1.02,-0.6l-1.91 0.59c-0.06,1.66 -0.21,2.37 0.12,4.01 0.79,3.9 1.85,1.74 0.64,5.06 -0.07,0.18 -0.18,0.38 -0.25,0.57 -0.07,0.21 -0.17,0.41 -0.24,0.63 -0.08,0.24 -0.14,0.44 -0.21,0.68 -2.13,7.74 -3.49,8.88 -1.07,11.83 3.21,-1.6 0.01,0.41 1.74,-1.37 1.64,-1.67 2.05,-2.26 2.19,-5.67 -1.5,1.15 1.07,3.4 2.37,3.94 -2.56,1.36 -8.18,6.01 -3.75,8.68l1.1 0.24c4.46,0.12 1.07,-1.05 1.07,-1.05 0,4.34 -0.78,3.48 1.58,5.51 -3.27,1.39 -2.82,2.05 -2.89,5.99 -0.1,6.14 1.39,-2.83 -0.14,1.76l-2.16 3.8c-0.09,0.14 -0.23,0.33 -0.33,0.46 -4.27,5.8 -0.43,-1.6 -6.37,9.35l-1.51 3.85c4.38,2.64 3.85,0.78 11.02,0.78l0 -4.72c3.48,-0.01 -1.63,0.46 3.16,0.79 -4.31,2.38 -2.89,-1.68 -3.15,4.73 1.46,1.21 0.63,0.88 3.1,1.5l67.05 0.5c4.54,-0.99 0.04,-1.37 4.16,-1.02l16.26 0.59c1.71,-2.82 -0.77,-4.13 0.75,-2.39 2.06,-3.71 0.05,4.6 6.34,4.45z"/>
   <path class="fil1" d="M860.27 391.23c-6.28,0.16 -4.28,-8.16 -6.34,-4.45 -1.52,-1.74 0.96,-0.43 -0.75,2.39l-16.26 -0.59c-4.12,-0.34 0.38,0.04 -4.16,1.02l-67.05 -0.5c-2.46,-0.62 -1.63,-0.28 -3.1,-1.5 0.26,-6.4 -1.16,-2.35 3.15,-4.73 -4.79,-0.33 0.32,-0.8 -3.16,-0.79l0 4.72c-7.17,0 -6.64,1.86 -11.02,-0.78l1.51 -3.85c5.94,-10.96 2.1,-3.55 6.37,-9.35 0.1,-0.13 0.23,-0.32 0.33,-0.46l2.16 -3.8c1.53,-4.6 0.05,4.38 0.14,-1.76 0.06,-3.94 -0.38,-4.6 2.89,-5.99 -2.35,-2.03 -1.58,-1.17 -1.58,-5.51 0,0 3.39,1.17 -1.07,1.05l-1.1 -0.24c-4.43,-2.67 1.18,-7.32 3.75,-8.68 -1.3,-0.53 -3.87,-2.79 -2.37,-3.94 -0.14,3.41 -0.56,4 -2.19,5.67 -1.73,1.77 1.47,-0.23 -1.74,1.37 -2.42,-2.95 -1.06,-4.09 1.07,-11.83 0.07,-0.25 0.13,-0.45 0.21,-0.68 0.07,-0.22 0.17,-0.42 0.24,-0.63 0.07,-0.19 0.19,-0.39 0.25,-0.57 1.21,-3.32 0.15,-1.16 -0.64,-5.06 -0.33,-1.64 -0.19,-2.35 -0.12,-4.01l1.91 -0.59c1.96,-0.02 0.48,-0.7 1.02,0.6 0,-1.61 0.08,-1.93 -0.28,-3.32 -0.85,-3.22 -1.62,-4.5 0.43,-10.4 0.06,-0.18 0.17,-0.37 0.23,-0.54l1.57 -56.9c4.1,0.19 12.88,-1.26 15.78,0.7 3.19,3.88 0.76,12.03 2.5,17.32 1.21,3.68 2.03,0 1.86,7.46 -0.04,1.63 -0.26,2.84 0.26,4.51 0.71,2.28 1.85,1.39 2.25,3.37 -0.08,2.63 -0.77,5.18 0.16,7.59 0.88,2.29 1.72,0.72 2.11,5.19 1.11,12.53 10.19,32.37 11.01,37.05l2.29 0.11 -6.53 -18.99c-6.21,-16.48 -8.44,-36.03 -11.36,-53.22 -2.47,-14.51 1.74,-12.09 -12.87,-12.36 -5.78,-0.1 -4.92,-1.39 -9.41,0.77 -1.37,5.88 -1.71,32.38 -2.48,39.26 -1.4,12.61 -2.16,25.13 -4.17,37.57 -9.19,57.08 -25.64,41.17 -25.64,57.84 6.73,4.51 5.35,1.2 12.93,2.03 4.06,0.44 10.27,-0.99 16.1,-0.33 11.22,1.26 37.31,0.6 51.32,0.68 6.24,0.04 9.8,-0.81 16.53,-0.8 5.23,0.01 30.34,1.12 33.08,-1.1z"/>
   <path class="fil1" d="M534.21 188.35l-0.79 35.44c-0.38,6.65 -0.6,13.39 4.73,13.39 5.11,0 3.15,-15.19 3.15,-20.48 0,-8.14 0,-16.28 0,-24.41 3.67,2.46 8.65,13.02 11.47,17.67l10.32 17.35c0.31,0.37 0.9,1.05 1.05,1.2 5.5,-0.46 4.57,-1.16 8.02,-6.94l13.96 -24.63c1.46,-2.57 0.93,-3.05 4.01,-3.87l0 41.74c3.97,2.66 0.89,2.87 6.3,1.58 1.27,-5.44 1.64,-52.37 0.28,-56.99 -0.83,-2.82 0.36,-2.07 -2.64,-2.87 -0.14,-0.08 -0.4,-0.31 -0.46,-0.15 -0.06,0.16 -0.38,-0.11 -0.46,-0.11 -2.17,0.09 -2.5,0.68 -3.85,2.56l-9.56 17.23c-2.4,3.71 -4.23,6.82 -6.59,10.74 -1.31,2.18 -2.35,3.5 -3.36,5.31 -1.57,2.82 -1.5,3.65 -4.08,5.37 -2.85,-2.09 -10.63,-16.28 -12.93,-20.14 -4.4,-7.4 -15.25,-32.11 -18.97,-19.6 -0.89,3.01 0.4,6.49 0.4,10.61z"/>
   <path class="fil0" d="M435.77 210.4c0,-9.08 -0.64,-7.42 2.15,-15.18 0.99,-2.75 -0.05,-1.07 1.58,-3.14 12.36,-15.76 36.58,-12.68 44.19,5.06 1.07,2.49 0.91,-1.21 0.91,2.24 0,8.15 1.02,12.48 -2.96,19.09 -9.26,15.37 -33.67,15.33 -42.9,0 -0.92,-1.53 -2.96,-6.02 -2.96,-8.06zm-7.88 -4.73c0,15.04 14.37,32.29 31.5,32.29 10.6,0 14.6,-0.37 23.66,-9.41 1.95,-1.94 4.33,-4.86 5.84,-7.55 9.84,-17.58 -0.42,-40.75 -19.94,-45.37 -14.47,-3.42 -32.89,3.53 -38.16,17.2 -0.83,2.15 -2.9,10.43 -2.9,12.85z"/>
   <path class="fil1" d="M644.47 182.05c8.96,0 14.02,0.31 20.91,6.65 14.71,13.55 7.49,44.91 -22.26,40.4 -14.89,-2.26 -24.56,-16.44 -18.84,-31.01 1.85,-4.72 4.2,-7.31 7.9,-10.21 1.93,-1.51 3.09,-2.5 5.18,-3.48 1.38,-0.65 5.31,-2.35 7.1,-2.35zm-29.14 24.41c0,14.65 13.13,29.93 29.14,29.93 10.72,0 18.52,-0.02 28.18,-10.41 8.62,-9.29 8.61,-26.22 3.87,-35.03 -10.33,-19.23 -38.37,-21.84 -51.97,-7.55 -5.26,5.52 -9.22,12.71 -9.22,23.07z"/>
   <path class="fil1" d="M711.42 207.77c0.7,0.6 0.08,0.91 3.88,1.13 6.21,0.36 15.17,-1.35 20.83,1.2 4.82,2.18 5.8,5.34 5.25,11.32 -1.09,11.85 -21.89,8.66 -34.68,8.66 -0.75,-1.34 -0.44,-0.96 -0.79,-3.15 -4.19,1.54 -1.15,3.66 -2.36,6.68 -3.82,-1.22 -2.39,-3.14 -2.38,-12.99 0.01,-5.02 -0.06,-9.96 0,-14.96l-0.24 -22.93c0.18,-4.49 -0.35,-4.1 2.61,-4.93l0.8 13.68c0.09,4.26 -1.15,8.84 -0.46,12.22 2.18,0.42 15.31,-0.55 19.36,-0.47 5.41,0.11 9.03,1.82 13.59,-2.12l2.31 -2.74c0.06,6.14 -0.18,2.87 -1.72,4.91 -1.92,2.53 -1.19,2.91 -1.58,3.81 -3.87,0.07 -3.71,-0.82 -6.3,-0.71 -2.61,0.12 -1.11,0.61 -4.75,1.03 -4.21,0.48 -9.01,0.11 -13.36,0.33zm15.75 -5.25c-25.45,0 -22.05,3.74 -22.05,-16.54 0,-6.75 4.78,-4.73 20.48,-4.73 3.35,0 6.57,1.48 8.97,2.85 5.8,3.31 5.67,11.75 0.66,15.44 -1.21,0.89 -6.19,2.98 -8.05,2.98zm-29.14 -23.63l0 54.34c0,1.84 1.31,3.15 3.15,3.15 13.21,0 35.32,2.32 42.88,-4.38 6.01,-5.33 7.2,-15.75 1.82,-22.21 -2.39,-2.87 -3.87,-2.37 -6.11,-5.71 3.59,-5.35 6.3,-4.26 6.3,-14.18 0,-17.21 -26.94,-14.96 -40.95,-14.96 -3.19,0 -7.09,0.85 -7.09,3.94z"/>
   <path class="fil1" d="M409.78 181.09c-0.09,-3.62 -0.99,-4.55 -3.94,-5.34 -1.34,1.27 -1.61,1.43 -2.2,3.31 -1.75,5.53 -0.95,35.88 -0.95,42.37 -3.99,-1.06 -5.75,-6.47 -10.03,-11.23 -6.7,-7.44 -11.76,-16.09 -19.3,-24.01 -4.79,-5.03 -6.65,-10.02 -11.63,-10.44 -3.42,11.21 0.1,21.56 -0.86,31.5 -0.23,2.38 -1.04,25.17 0.42,27.27l2.82 1.07c1.09,-2.62 0.73,-4.06 0.66,-7.09l0.03 -21.26c0.23,-16.24 -1.81,-22.36 4.83,-18.12 0,6.2 4.39,7.96 8.12,11.58l3.02 3.93c0.32,0.43 1.49,1.74 2.19,2.63 3.33,4.26 0.27,2.02 6.41,8.53l5.12 5.98c0.11,0.12 0.27,0.29 0.37,0.4l6.3 8.47c4.78,5.87 2.78,4.62 6.27,4.47 0.36,-9.28 1.02,-18.29 1.22,-27.87l1.14 -26.16z"/>
   <path class="fil0" d="M406.63 320.65c4.58,-1.04 1.09,0.46 3.71,-2.69l5.02 -5.72c2.8,-3.48 -0.73,-1.29 3.8,-3.33 0.7,1.88 3.83,7.06 2.39,7.84 1.02,-1.99 0.49,-0.51 4,-2.57l2.34 -1.4 0.02 -3.95c-2.53,0.1 -0.99,-0.42 -1.88,0.91 -0.17,0.26 -0.79,1.54 -0.79,1.55 -0.18,0.21 -0.29,0.37 -0.5,0.58l-2.33 1.63c-0.62,-2.81 -1.33,-3.04 -0.13,-5.31 1.7,-3.24 1.27,-0.02 3.25,-2.49l-1.54 -3.12c1.76,-0.67 1.22,-0.7 3.94,-0.82l-0.01 -4.73c0.2,-0.18 0.52,-0.68 0.62,-0.5 0.01,0.01 1.64,-0.61 2.22,-3.66l2.64 -4.49c2.59,2.73 4.36,7.64 2.17,11.02l2.37 0c-0.12,3.58 -0.7,4.05 -1.76,7.22l-2.17 8.32c-1.59,5.16 -1.48,-1.21 -1.72,8.87 -0.19,0.11 -0.53,0.03 -0.6,0.27l-0.97 0.4c-2.5,0.79 0.54,-0.47 -0.72,0.11 -0.25,4.29 0.84,4.83 -1.19,7.9 -0.1,0.15 -0.29,0.29 -0.38,0.43 -2.66,4.01 0.63,5.85 -1.19,10.45 -1.29,3.26 -1.92,-0.15 -2.22,5.57 -0.5,9.67 -0.08,8.08 1.55,12.36 1,2.63 0.6,7.49 6.04,9.26 -1.91,-8.44 -6.63,-4.48 -3.95,-30.22 0.87,-8.38 9.5,-33.54 13.06,-42.85 1.55,-4.04 16,-39.13 12.94,-42.19 -3.48,-1.67 -9.08,-1.34 -11.05,1.55 -1.28,1.88 -3.53,7.12 -4.7,9.47l-9.98 18.37c-3.81,7.71 -21.62,33.89 -22.31,35.97z"/>
   <path class="fil1" d="M277.65 199.37c0.99,2.52 1.48,3.29 2.97,5.51l-11.03 14.96c-4.08,5.45 -10.13,11.67 -10.24,16.54 5.75,0 6.43,1.03 9.17,-2.64 2.31,-3.1 14.44,-18.74 15.24,-21.77 4.69,0.39 7.26,7.21 13.14,14.42 2.19,2.69 3.63,5.06 5.84,7.55 4.66,5.27 13.07,4.2 7.97,-2.4 -3.58,-4.64 -7.44,-8.11 -12.63,-15.78 -1.06,-1.57 -1.63,-2.66 -2.84,-4.25 -1.38,-1.82 -1.98,-1.95 -3.24,-3.9 -1.64,-2.52 -2.02,-3.48 0.2,-5.88l1.79 -4.14c0.08,-0.15 0.19,-0.36 0.27,-0.51l0.84 -1.43c0.08,-0.12 0.22,-0.31 0.3,-0.43 0.09,-0.12 0.23,-0.3 0.32,-0.41 0.09,-0.12 0.24,-0.29 0.34,-0.41 3.33,-4.2 11.42,-14.01 11.75,-17.4 -2.04,-0.31 -1.72,-0.73 -4.18,0.35 -0.2,0.09 -0.36,0.22 -0.53,0.33 -0.16,0.1 -0.31,0.27 -0.45,0.38l-12.06 16.37c-1.91,2.26 -1.52,3.27 -3.68,5.73l-3.15 -0c-0.01,-0.83 0.05,-0.93 -0.21,-1.8l-0.73 -1.72c-0.74,-1.38 -1.52,-2.28 -2.52,-3.28 -1.47,-1.46 -1.95,-1.51 -2.9,-2.53 -0.1,-0.11 -0.25,-0.29 -0.35,-0.41 -3.49,-4.18 -6.43,-10.28 -7.46,-11.56 -1.32,-1.63 -1.7,-3.83 -6.29,-0.76 0.89,4.35 9.67,10.13 14.35,21.26z"/>
   <path class="fil1" d="M863.53 208.82c5.74,0 11.48,-0.01 17.22,0 6.31,0.02 11.23,1.18 12.6,-3.94 -2.19,-3.28 -3.68,-2.74 -7.19,-2.49 -3.88,0.28 -7.82,0.13 -11.72,0.13 -3.18,0 -7.86,0.74 -10.58,-0.44 -3.11,-1.35 -2.03,-5.58 -2.02,-9.79 0.03,-13.75 -1,-10.19 11.02,-10.23 7.18,-0.02 16.93,1.06 22.76,-0.8 -0.86,-4.89 0.56,-2.77 -2.27,-4.72 -6.7,0 -31.7,-0.61 -36.23,1.15 -1.67,4.52 -1.27,35.52 -0.82,42.95 0.14,2.35 0.23,4.78 0.25,7.13 0,0.43 0,3.64 0.02,3.75 0.48,3.17 1.78,3.19 1.84,3.35 0.09,0.23 0.4,0.2 0.54,0.24 3.85,1.07 4.78,0.32 7.99,-0.06 4.87,-0.57 25.02,2.83 28.83,-1.81 -5.66,-5.02 -30.68,1.88 -35.27,-3.15 -0.6,-2.43 0.14,-17.06 0.06,-21.26l2.96 0z"/>
   <path class="fil1" d="M374.34 522.27c-18.42,4.29 -11.81,-5.27 -11.81,-25.2 0,-5.43 -2.84,-4.73 -6.3,-4.73 0,3.42 -0.57,5.16 -0.63,7.16 -0.13,4.31 3.32,23.55 -2.52,23.55 -11.68,0 -8.79,0.85 -9.94,-8.23 -0.66,-5.25 1.85,-13.26 -0.29,-22.48 -5.66,0 -5.94,-1.57 -5.54,11.84 0.12,3.87 0.71,3.95 0.85,7.83 0.13,3.66 -0.31,5.76 -0.64,8.13 -0.59,4.33 0.32,4.31 0.6,7.63 3.56,0.08 3.13,0.79 7.09,0.79l32.29 0c1.84,0 3.15,-1.31 3.15,-3.15l0 -30.71c0,-2.75 -3.35,-3.83 -5.11,-2.07 -2.24,2.24 -1.19,25.71 -1.19,29.63z"/>
   <path class="fil1" d="M168.78 182.83c0,4.73 0,9.46 -0.02,14.19 -0.03,7.54 2.12,16.96 -0.32,26.42 -3.42,13.24 -21.87,1.92 -22.5,1.92 -6.72,0 -1.6,11.81 12.6,11.81 18.64,0 18.12,-12.87 18.11,-24.41 -0,-7.09 0,-14.18 0,-21.26 -0,-18.5 4.53,-16.54 -16.54,-16.54 -8.68,0 -16.56,2.95 -10.68,5.86 3.02,1.49 14.95,0.99 19.34,2.02z"/>
   <path class="fil1" d="M393.24 558.5c-0.2,2.46 -0.79,2.8 -0.79,5.51l0 26.78c0,2.11 1.14,2.33 2.36,3.15 4.53,-1.21 3.18,-4.53 3.15,-10.24 -0.02,-4.46 -0,-8.93 -0,-13.39 2.27,1.66 4.47,9.04 5.41,11.92 1.37,4.2 3.22,9.57 6.41,11.71 4.54,-1.06 4.45,-4.23 7.19,-10.92 1.73,-4.22 3.75,-10.91 6.2,-12.7 0,3.46 -1.02,20.7 1.11,22.66 7.68,7.08 4.41,-26.91 4.41,-34.48 -9.48,-2.27 -9.12,3.63 -14.47,17.82l-2.86 7.38c-2.1,-0.76 -1.24,0.2 -2.65,-2.86l-4.53 -12.01c-4.2,-12.66 -4.36,-10.49 -10.93,-10.34z"/>
   <path class="fil1" d="M204.97 204.89c-0.82,5.31 -6.24,15.81 -8.81,21.39 -0.58,1.25 -1.22,2.65 -1.45,3.51 -0.07,0.25 -0.35,1.66 -0.32,1.95 0.25,2.62 -0.1,1.39 1.17,3.02 0.19,-0.15 0.43,-0.66 0.52,-0.51l0.96 -1c3.95,-4.46 1.78,-4.22 4.39,-7.6 2.9,-3.76 2.59,-6.29 4.37,-6.94 5.52,-0.27 29.29,-0.24 33.08,0.99 1.37,4.62 0.65,2.09 1.98,3.65 4.22,4.92 -1.48,-4.22 1.18,1.66 0,0.01 0.58,1.83 0.84,2.45 0.52,1.3 1.3,3.25 1.83,4.4 1.69,3.68 1.97,2.78 5.06,3.68 -0.07,-3.54 -1.23,-6.73 -2.78,-9.45l-5.54 -11.8c-0.1,-0.15 -0.25,-0.33 -0.35,-0.47 -2.58,-3.76 -0.63,-1.93 -2.33,-5.44l-2.18 -4.17c-0.15,-0.21 -0.31,-0.39 -0.47,-0.58 -0.16,-0.2 -0.42,-0.39 -0.57,-0.56 -0.15,-0.17 -0.38,-0.41 -0.62,-0.54 -3.37,4.06 -0.51,8.23 1.58,9.45 0,2.36 -0.88,3.66 -3.44,4.11l-21.92 -0.3c-4.92,-0.95 -5.47,-1.21 -1.46,-7.85l6.12 -14.74c2.3,-6.83 4.15,-3.74 4.15,-10.37l3.16 -0.02c0.95,3.41 2.15,6.9 3.82,10.53 1.65,3.59 3.07,7.52 6.41,9.18 0.18,-0.24 0.36,-0.91 0.41,-0.79 0.05,0.12 0.3,-0.54 0.35,-0.77 0.05,-0.2 0.2,-0.49 0.25,-0.74 0.39,-2.01 -0.3,-3.03 -0.39,-5.58 -2.91,-6.99 -5.97,-13.56 -10.07,-19.69l-5.51 0c-3.01,4.49 -4.54,8.96 -6.87,14.39l-4.06 9.33c-1.65,3.48 -2.15,2.85 -2.5,6.2z"/>
   <path class="fil2" d="M208.86 37.13l0.2 107.9c0.19,19.18 3.82,13.63 -45.79,13.84l-43.77 0.81c-1.05,-23.05 0.08,-48.03 -0.05,-71.36l-0.02 -54.35c-0.03,-8.09 1.73,-11.24 -6.56,-10.68 5.12,2.84 3.96,5.51 3.94,13.05 -0.05,18.72 -1.11,121.75 0.79,123.65 4.65,2.23 84.1,2.66 92.14,0.79 1.68,-7.2 -0.24,-19.94 0.26,-28.97 0.92,-16.79 -0.31,-18.32 -0.26,-30.89l0.01 -55.93c0.01,-1.16 0.11,-2.91 0.05,-3.99l-0.94 -3.88z"/>
   <path class="fil1" d="M619.27 509.67c0,-7.86 9.45,-10.42 9.45,-5.51l0 13.39c-4.98,0 -9.45,-1.46 -9.45,-7.88zm15.75 8.66c-1.34,-5.75 -0.79,-7.31 -0.79,-14.18 0,-4.73 9.45,-2.52 9.45,4.73 0,5.87 -3.13,8.99 -8.66,9.45zm-21.26 -11.03c0,4.58 -0.33,5.94 2.36,10.25 3.69,5.93 9.54,3.41 13.03,8.24 1.3,1.8 -0.54,0.43 1.94,2.78 4.29,-2.27 1.43,-2.07 4.29,-4.38 1.28,-1.04 4.84,-1.95 6.61,-2.84 10.57,-5.27 8.49,-19.62 1.59,-23.39 -2.52,-1.38 -4.29,-0.96 -6.65,-2.01 -4.22,-1.89 -0.75,-3.08 -4.59,-4.12 -2.92,-0.79 -3.19,1.85 -4.83,3.22 -1.9,1.58 -13.74,1.97 -13.74,12.26z"/>
   <path class="fil2" d="M397.18 496.28l0 26.78c0,6.3 4.95,8.6 12.27,-3.48 2.05,-3.38 9.28,-14.68 11.36,-16.21 3.2,6.67 -2.86,25.2 3.94,25.2 3.9,0 2.24,-6.79 2.33,-14.21 0.05,-3.98 0.84,-4.68 0.75,-7.83 -0.32,-11.35 1.34,-14.19 -5.45,-14.19 -2.63,0 -8.8,11.54 -11.37,15.4l-4.55 6.47c-1.8,2.3 -0.85,1.77 -2.97,2.54 0,-6.74 1.15,-19.26 -1.58,-24.41l-3.94 0c-0.41,1.77 -0.79,1.81 -0.79,3.94z"/>
   <path class="fil1" d="M190.05 518.34c-1.34,-5.75 -0.79,-7.31 -0.79,-14.18 0,-4.79 9.45,-2.33 9.45,4.73 0,6.01 -3.1,8.99 -8.66,9.45zm-15.75 -8.66c0,-7.98 4.35,-7.88 9.45,-7.88 0,8.17 1.24,12.31 -0.79,16.54 -4.57,-1.07 -8.66,-3.13 -8.66,-8.66zm-5.51 -1.58c0,5.2 2.01,10.81 6.58,13.11 4.79,2.41 6.37,1.42 8.61,3.99 1.58,1.8 -0.65,0.56 2.13,2.6 4.14,-1.11 0.82,-1.75 4.73,-3.93 5.47,-3.05 13.38,-0.92 13.38,-15.76 0,-11.88 -11.02,-11.43 -12.96,-12.24 -2.87,-1.2 -1.44,-2.52 -5.16,-3.51 -2.94,1.97 -1.24,2.27 -4.28,3.6 -1.59,0.7 -13.05,2.36 -13.05,12.16z"/>
   <path class="fil1" d="M844.52 494.71c0,8.46 -0.92,25.77 0.79,33.08 3.93,0.92 5.15,0.61 7.44,-2.79 1.93,-2.86 3.43,-4.8 5.17,-7.44 1.6,-2.43 2.78,-4.8 4.59,-7.22 1.82,-2.43 3.37,-5.45 5.64,-6.97 1.85,7.93 -1.91,24.41 3.15,24.41 4.84,0 3.15,-15.95 3.15,-22.84 0,-2.75 -0.3,-5.74 -0.5,-7.37 -0.57,-4.47 0.64,-5.23 -4.22,-5.23 -2.77,0 -8.3,9.52 -9.91,12.15l-6.43 10.11c-1.27,1.93 -0.92,2.3 -3.35,2.95 0,-4.46 -0,-8.93 0,-13.39 0,-5.75 1.75,-11.81 -3.15,-11.81 -1.81,0 -2.36,0.55 -2.36,2.36z"/>
   <path class="fil1" d="M532.64 560.86c0,6.77 -1.76,33.08 2.36,33.08 7.94,0 14.93,-20.56 21.26,-25.2 3.47,7.22 -3.24,23.29 3.94,25.2 3.42,-2.51 2.36,-6.09 2.36,-13.39 0,-7.2 -0.85,-10.12 -0.83,-12.61 0.05,-6.04 2.55,-9.44 -3.9,-9.44 -2.6,0 -6.85,8.04 -8.55,10.35 -11.56,15.68 -11.2,21.19 -11.14,-0.11 0.01,-2.43 0.58,-7.15 -0.41,-9.12 -1.33,-2.68 -5.1,-2.19 -5.1,1.25z"/>
   <path class="fil1" d="M813.01 523.85c-7.44,0 -11.1,-5.34 -11.4,-12.79 -0.8,-19.98 21.52,-18.56 21.42,-2.18 -0.04,6.38 -1.91,14.97 -10.02,14.97zm-3.15 4.73c12.89,0 18.9,-4.06 18.9,-18.9 0,-24.16 -23.95,-19.73 -29.46,-12.93 -2.67,3.3 -3.99,8.26 -3.99,12.92 0.02,9.33 4.54,18.91 14.55,18.91z"/>
   <path class="fil1" d="M623.21 560.86l0 29.93c0,1.52 1.4,3.15 2.36,3.15 8.38,0 15.89,-22.47 21.26,-24.41 1.25,2.6 0.9,8.02 0.79,11.87l0 11.76c5.32,1.24 5.23,-0.99 5.01,-8.03 -0.12,-3.63 0.51,-1.02 0.51,-4.57 0,-5.43 -0.74,-8.32 -0.84,-12.61 -0.14,-6.37 2.68,-9.44 -3.89,-9.44 -3.05,0 -8.4,9.93 -9.89,12.16 -2.79,4.17 -6.05,10.53 -9.8,13.04 0,-8.16 0.81,-18.34 -0.79,-25.2 -2.74,0 -4.73,-0.48 -4.73,2.36z"/>
   <path class="fil1" d="M679.91 523.85c-13.07,0 -14.17,-20.86 -6.06,-25.75 7.39,-4.45 16.3,-0.25 16.3,10 0,7.42 -1.32,15.75 -10.24,15.75zm-17.33 -14.96c0,27.1 33.87,25.32 33.87,2.36 0,-14.31 -5.87,-19.69 -18.9,-19.69 -8.97,0 -14.96,8.16 -14.96,17.33z"/>
   <path class="fil1" d="M450.73 578.19c0,-5.44 -0.74,-15.75 10.24,-15.75 14.99,0 14.63,24.85 1.8,27.07 -6.45,1.12 -12.03,-3.82 -12.03,-11.32zm-6.3 -3.94c0,26.57 22.47,21.42 28.27,16.46 7.8,-6.67 7.95,-33 -9.37,-33 -9.77,0 -18.9,2.19 -18.9,16.54z"/>
   <path class="fil1" d="M498.77 582.13c0,-2.13 0.38,-2.17 0.79,-3.94 8.54,0 11.81,-0.3 11.81,5.51 0,6.28 -4.92,5.51 -9.45,5.51 -2.81,0 -3.15,-4.29 -3.15,-7.09zm-4.73 -23.63c-1.97,8.47 -0.31,17.07 -0.57,23.29 -0.6,14.37 -1.62,12.15 15.53,12.15 3.14,0 8.66,-3.96 8.66,-10.24 0,-11.46 -10.06,-11.03 -18.11,-11.03 0,-5.58 -1.34,-3.71 0,-9.45 6.29,0 10.64,-0.36 15.75,-0.79 -0.13,-5.82 -2.3,-3.64 -16.72,-4.48 -2.21,-0.13 -2.23,0.29 -4.55,0.54z"/>
   <path class="fil1" d="M542.09 492.35c-2.77,11.87 -2.32,16.13 -3.45,20.96 -1.01,4.3 -0.55,6.71 -3.41,9.2 -1.13,0.99 -9.58,6.07 0.56,6.07 11.74,0 7.64,-27.23 11.36,-30.38 2.34,-1.99 7.16,-0.79 9.12,-0.33 0.91,10.94 -1.87,24.2 1.58,30.72 1.79,-0.42 1.81,-0.61 3.94,-0.79 0.21,-2.46 0.79,-2.8 0.79,-5.51 0,-8.08 0.9,-21.9 -0.79,-29.14 -6.67,-3.2 -14.8,-0.91 -19.69,-0.79z"/>
   <path class="fil1" d="M711.42 497.07l0 25.99c0,3.59 1.17,4.73 3.94,4.73 6.17,0 -1.69,-15.75 5.51,-15.75 18.46,0 12.04,-0.54 13.35,12.66 0.24,2.46 0.98,4.38 3.48,3.48 2.79,-1 2.16,-3.19 2.11,-6.65 -0.07,-5.53 -0.03,-11.06 -0.05,-16.59 -0.03,-6.69 2.62,-12.59 -3.14,-12.59 -3.93,0 -2.09,6.42 -2.27,10.33 -0.06,1.47 1.29,5.31 -8.62,4.55 -9.75,-0.75 -7.99,-1.46 -8.11,-4.55 -0.16,-4.23 1.54,-10.34 -3.05,-10.34 -2.42,0 -3.15,2.31 -3.15,4.73z"/>
   <path class="fil1" d="M767.33 177.32l0 56.7c0,4.88 7.05,2.43 7.88,2.36 0,-8.71 -0.43,-49.58 0.36,-56.4 1.07,-9.16 -8.24,-6.73 -8.24,-2.66z"/>
   <path class="fil1" d="M327.09 178.9l0 54.34c0,3.57 3.49,3.15 5.51,3.15 5.03,0 2.36,-9.42 2.36,-14.18l0 -32.29c0,-6.19 2.56,-14.96 -3.94,-14.96 -1.84,0 -3.94,2.1 -3.94,3.94z"/>
   <path class="fil1" d="M754.73 492.35c0,7.84 8.66,11.91 8.66,17.33 0,4.15 -9.3,11.38 -9.45,18.11 8.92,2.08 6.69,-8.12 13.39,-12.6 4.18,2.21 2.6,3.36 7.11,10.21 1.54,2.34 2.95,2.61 3.67,5 0.88,2.93 -0.03,6.06 3.4,6.06 3.36,0 2.36,-3.02 2.36,-10.24 0,-3.6 -2.29,-0.92 -6.33,-6.27 -1,-1.32 -1.55,-2.03 -2.59,-3.71 -6.16,-9.95 -3.37,-7.04 3.07,-17.93 0.09,-0.15 0.21,-0.34 0.3,-0.49 1.71,-2.9 1.62,0.01 1.62,-5.47 -0.42,0 -2.06,-0.06 -2.37,-0.01 -3.69,0.58 -5.04,5.25 -9.44,11.82 -4.95,-3.32 -6.3,-14.57 -13.39,-11.81z"/>
   <path class="fil2" d="M264.87 508.89l0 -11.03c16.77,-3.91 15.19,14.57 0,11.03zm-6.3 -10.24l0.35 19.7c-0.03,1.15 -1.15,4.49 1.22,9.44l3.94 0c0.97,-4.14 0.79,-6.71 0.79,-11.81 5.01,-1.17 8.91,-0.18 12.76,-2.99 6.05,-4.41 7.19,-9.39 4.29,-15.63 -2.73,-5.86 -11.65,-5.79 -17.84,-5.79 -4.42,0 -5.51,2.72 -5.51,7.09z"/>
   <path class="fil1" d="M586.19 558.5c-1.99,4.14 -2.54,12.92 -3.27,18.78 -0.29,2.34 -1.43,6.66 -2.2,8.83 -2,5.63 -4.26,1.4 -5.56,6.26 3.53,4.81 7.78,1.53 10.12,-2.48 2.03,-3.48 3.52,-13.77 3.93,-18.12 0.83,-8.84 -1.68,-8.54 8.79,-8.54 3.86,0 2.36,8.04 2.36,15.75 -0,10.27 -1.57,13.68 3.94,14.96 0.95,-1.42 1.58,-1.38 1.58,-3.15 0,-33.16 2.83,-33.58 -7.96,-32.44 -3.85,0.41 -7.85,0.15 -11.73,0.15z"/>
   <path class="fil2" d="M499.56 494.71c0,8.46 -0.91,25.77 0.79,33.08 3.56,0.08 3.13,0.79 7.09,0.79 10.63,0 12.22,1.21 13.39,-3.15 -2.14,-3.19 -2.6,-2.5 -7.88,-2.36 -8.68,0.23 -7.88,-0.31 -7.88,-7.88 0,-4.76 8.77,-3.15 13.39,-3.15l0.88 -3.12c-4.55,-5.84 -14.27,1.47 -14.27,-4.76 0,-13.89 7.02,-2.97 13.99,-7.27 1.64,-1.01 1.37,-1.27 1.77,-2.97 -2.68,-3.65 -8.15,-2.36 -16.54,-2.36 -2.42,0 -4.73,0.73 -4.73,3.15z"/>
   <path class="fil1" d="M306.61 517.55c0,8.45 -11.03,2.87 -11.03,7.88 0,4.69 10.84,4.85 15.9,-2.21l4.98 -10.77c0.43,-1.07 0.39,-1.27 0.83,-2.32 4.58,-10.75 11.21,-17.78 3.49,-17.78 -2.72,0 -2.68,1.7 -3.38,3.71 -1.43,4.16 -5.77,11.47 -6.08,15.19 -3.24,-0.86 -3.61,-3.96 -6.13,-8.83 -1.31,-2.53 -4.28,-7.77 -4.89,-10.07 -9.16,0 -6.95,-0.14 2.35,18.13l2.77 5.1c1,1.81 1.18,0.67 1.18,1.97z"/>
   <path class="fil2" d="M863.53 208.82l-2.96 0c0.08,4.21 -0.66,18.83 -0.06,21.26 4.59,5.03 29.61,-1.87 35.27,3.15 -3.82,4.64 -23.96,1.24 -28.83,1.81 -3.21,0.38 -4.14,1.13 -7.99,0.06 -0.14,-0.04 -0.45,-0.01 -0.54,-0.24 -0.07,-0.16 -1.37,-0.18 -1.84,-3.35 -0.02,-0.11 -0.01,-3.32 -0.02,-3.75 -0.02,-2.35 -0.11,-4.79 -0.25,-7.13 -0.45,-7.43 -0.85,-38.43 0.82,-42.95 4.53,-1.76 29.53,-1.15 36.23,-1.15 2.83,1.95 1.4,-0.17 2.27,4.72 2.52,-1.7 1.47,-2.98 0.88,-5.51 -7.11,-1.66 -28.81,-1.3 -37.89,-0.87 -6.31,0.3 -4.64,4.67 -4.64,15.04l0 38.64c-0.13,3.35 -1.29,5.75 0.62,7.14 2.91,2.11 33.46,0.74 35.24,1 4.88,0.7 4.84,0.67 9.02,-0.31 0,-9.59 -1.25,-6.99 -25.21,-7.1 -13.87,-0.06 -11.8,5.28 -11.8,-19.68l1.69 -0.79z"/>
   <path class="fil1" d="M227.85 517.55c0,7.96 -5.45,3.35 -11.03,7.09 1.67,7.16 12.37,3.95 15.94,-1.39l12.3 -26.43c2.49,-6.36 -3.84,-5.8 -5.9,-1.04l-8.16 15.46c-0.18,-0.67 -8.1,-18.9 -11.03,-18.9 -7.9,0 -0.87,6.61 4.74,18.1 0.4,0.82 3.14,6.57 3.14,7.1z"/>
   <path class="fil2" d="M219.98 185.98c4.46,0.37 2.98,2.35 7.72,11.97 9.76,19.83 8.16,16.38 -11.65,16.38 -3.96,0 -3.53,-0.71 -7.09,-0.79 0.08,-3.59 3.61,-10.51 5.13,-13.77 1.11,-2.38 1.94,-4.09 2.96,-6.49 1.03,-2.41 2.41,-5.09 2.93,-7.31zm-15.01 18.9c-2.18,1.66 -2.64,4.57 -3.88,7.1 -2.1,4.27 -9.88,19.23 -10.25,23.62 8.58,4.12 8.74,-2.66 11.77,-9.49l3.19 -5.47 31.5 0c3.11,4.64 4.48,10.68 7.88,15.75 2.67,0 5.67,0.73 6.72,-1.14 0.78,-1.39 -1.04,-4.88 -1.71,-6.22 -4.04,-8.03 -6.59,-15.04 -10.98,-22.89 -1.84,-3.29 -4.17,-7.94 -5.22,-11.49 0.1,2.55 0.78,3.57 0.39,5.58 -0.05,0.25 -0.19,0.53 -0.25,0.74 -0.06,0.22 -0.3,0.89 -0.35,0.77 -0.06,-0.13 -0.23,0.55 -0.41,0.79 -3.34,-1.66 -4.76,-5.59 -6.41,-9.18 -1.67,-3.64 -2.87,-7.13 -3.82,-10.53l-3.16 0.02c0,6.63 -1.85,3.55 -4.15,10.37l-6.12 14.74c-4.01,6.63 -3.46,6.9 1.46,7.85l21.92 0.3c2.56,-0.46 3.44,-1.76 3.44,-4.11 -2.09,-1.22 -4.95,-5.38 -1.58,-9.45 0.24,0.13 0.47,0.37 0.62,0.54 0.15,0.16 0.4,0.36 0.57,0.56 0.15,0.19 0.32,0.37 0.47,0.58l2.18 4.17c1.7,3.51 -0.24,1.67 2.33,5.44 0.1,0.14 0.25,0.32 0.35,0.47l5.54 11.8c1.55,2.72 2.71,5.92 2.78,9.45 -3.1,-0.9 -3.38,0 -5.06,-3.68 -0.53,-1.15 -1.3,-3.1 -1.83,-4.4 -0.25,-0.63 -0.83,-2.45 -0.84,-2.45 -2.67,-5.87 3.03,3.27 -1.18,-1.66 -1.34,-1.56 -0.61,0.97 -1.98,-3.65 -3.79,-1.23 -27.56,-1.26 -33.08,-0.99 -1.78,0.65 -1.47,3.18 -4.37,6.94 -2.61,3.38 -0.44,3.14 -4.39,7.6l-0.96 1c-0.09,-0.15 -0.33,0.36 -0.52,0.51 -1.27,-1.63 -0.92,-0.4 -1.17,-3.02 -0.03,-0.28 0.25,-1.69 0.32,-1.95 0.23,-0.85 0.87,-2.25 1.45,-3.51 2.57,-5.59 7.98,-16.08 8.81,-21.39z"/>
   <path class="fil2" d="M806.71 226.94c-2.75,0.96 -0.76,-0.47 -2.38,1.57 1.85,9.28 21.95,0.66 30.86,4.73l-16.67 0.87c-24.47,-0.12 -16,7.57 -17.2,-52.85 -1.42,-1.24 1.86,-1.1 -2.49,-0.99 0,8.97 -0.71,47.62 0,56.12l5.13 0.26c6.82,0.44 26.82,1.26 32.64,0.49 5.16,-0.68 4.94,-3.39 3.18,-7.05 -8.93,-2.08 -21.99,-0.79 -32.29,-0.79 -0.5,-0.59 -0.64,-1.92 -0.79,-2.36z"/>
   <path class="fil2" d="M409.78 181.09l-1.14 26.16c-0.2,9.58 -0.86,18.58 -1.22,27.87 -3.48,0.14 -1.49,1.4 -6.27,-4.47l-6.3 -8.47c-0.1,-0.12 -0.27,-0.29 -0.37,-0.4l-5.12 -5.98c-6.14,-6.5 -3.07,-4.27 -6.41,-8.53 -0.7,-0.89 -1.86,-2.19 -2.19,-2.63l-3.02 -3.93c-3.73,-3.62 -8.12,-5.38 -8.12,-11.58 -6.64,-4.24 -4.61,1.88 -4.83,18.12l-0.03 21.26c0.07,3.03 0.43,4.47 -0.66,7.09l-2.82 -1.07c-1.45,-2.1 -0.65,-24.89 -0.42,-27.27 0.97,-9.94 -2.56,-20.29 0.86,-31.5 -3.28,0.88 -3.16,1.41 -3.21,5.44l0.09 52.04c0.61,3.69 2.24,3.17 6.29,3.17 1.14,-4.28 1.66,0.21 1.58,-10.23l-0.01 -35.45c3.07,0.82 3.94,3.12 5.62,5.4 1.87,2.54 3.03,3.47 4.97,6.06l19.53 24.57c5.63,6.24 4.1,9.64 12.41,9.64 4.03,-6.02 1.81,-3.59 1.55,-11 -0.36,-10.41 1.48,-39.04 -0.76,-44.3z"/>
   <path class="fil2" d="M459.4 493.13c0.47,5.7 4.63,3.42 10.24,4.73 0,5.51 0,11.03 0,16.54 -0,6.72 -1.92,14.18 3.94,14.18 1.82,0 2.36,-0.55 2.36,-2.36l0 -18.9c0,-3.89 -1.75,-7.37 0.22,-9.18 1.22,-1.12 7.73,-1.32 10.02,-1.85 -0.08,-3.62 0.76,-2.53 -1.6,-3.92 -2.79,-1.64 -10.28,-0.37 -11.97,-0.28 -2.4,0.13 -7.32,-1.79 -13.21,1.04z"/>
   <path class="fil0" d="M798.84 180.27c4.35,-0.11 1.07,-0.25 2.49,0.99 1.2,60.42 -7.26,52.72 17.2,52.85l16.67 -0.87c-8.91,-4.06 -29.01,4.56 -30.86,-4.73 1.62,-2.04 -0.38,-0.61 2.38,-1.57 0,-13.76 -1.58,-11.49 -0.04,-29.97 0.35,-4.23 0.09,-19.12 -3.34,-20.38 -3.97,-1.46 -4.43,0.93 -4.49,3.69z"/>
   <path class="fil0" d="M705.9 226.94c-0.86,-6.04 -1.44,-11.95 0,-18.12l5.51 -1.05c4.36,-0.22 9.16,0.15 13.36,-0.33 3.64,-0.41 2.14,-0.91 4.75,-1.03 2.59,-0.11 2.43,0.78 6.3,0.71 0.39,-0.9 -0.34,-1.28 1.58,-3.81 1.54,-2.04 1.78,1.23 1.72,-4.91l-2.31 2.74c-4.56,3.94 -8.17,2.22 -13.59,2.12 -4.05,-0.08 -17.17,0.89 -19.36,0.47 -0.68,-3.38 0.56,-7.96 0.46,-12.22l-0.8 -13.68c-2.96,0.83 -2.43,0.43 -2.61,4.93l0.24 22.93c-0.06,5.01 0.01,9.94 -0,14.96 -0.01,9.84 -1.44,11.77 2.38,12.99 1.21,-3.03 -1.83,-5.14 2.36,-6.68z"/>
   <path class="fil1" d="M581.55 492.35c-1.1,13.1 0.15,10.23 -0.1,17.33 -0.19,5.25 -1.89,12.14 1.6,16.54 0.17,-0.23 0.32,-0.89 0.37,-0.76 0.87,2.13 0.41,-13.42 0.41,-14.99 12.84,-0.08 14.38,1.29 15.62,-2.36 -9.35,-3.9 -13.58,5.5 -14.83,-9.45 3.57,-1.89 3.33,-1.66 8.68,-1.55 4.9,0.1 6.69,0.64 7.07,-3.96 -3.57,-1.72 -14.45,-1.86 -18.82,-0.79z"/>
   <path class="fil2" d="M599.44 508.1c-1.24,3.65 -2.77,2.28 -15.62,2.36 0,1.57 0.46,17.11 -0.41,14.99 -0.05,-0.12 -0.21,0.53 -0.37,0.76 -3.49,-4.4 -1.79,-11.28 -1.6,-16.54 0.25,-7.1 -1,-4.22 0.1,-17.33l-2.36 1.68c-0.08,10.67 -1.48,24.37 0.7,33.76 3.81,0.89 5.49,0.78 10.24,0.8 5.84,0.02 6.23,0.53 10.24,-1.58 -1.66,-7.11 -4.06,-2.19 -14.96,-4.73 0,-4.38 -0.52,-5.44 -0.79,-8.66 7.88,-4.17 15.4,1.75 14.83,-5.51z"/>
   <path class="fil2" d="M558.17 122.19l-11.35 29.14c-1.31,2.93 -3.63,5.77 -3.94,9.45 2.06,0.99 3.74,1.72 6.62,1.19 8.12,-1.49 7.23,-4.64 12.55,-15.09 1.45,-2.86 1.34,-2.98 2.46,-6.2l5.3 -12.81c0.93,-1.9 2.48,-4.55 2.99,-6.51 -3.63,0.79 -0.67,-0.33 -2.51,1.45 -1.87,1.81 -3.76,7.01 -6.02,11.26l-5.63 13.34c-0.09,0.15 -0.24,0.33 -0.33,0.47 -0.13,0.19 -0.55,0.66 -0.66,0.85l-3.42 10.25c-0.05,-0.12 -0.17,0.49 -0.32,0.7 -1.79,-0.55 -1.85,-0.48 -3.34,-0.86l-3.5 -1.18 3.39 -8.8c1.46,-3.51 1.05,-5.61 2.45,-8.83l2.88 -8.9c1.5,-4.6 2.07,-0.97 2.39,-8.9z"/>
   <path class="fil2" d="M277.65 199.37c-4.68,-11.13 -13.46,-16.92 -14.35,-21.26 4.59,-3.07 4.97,-0.87 6.29,0.76 1.03,1.27 3.97,7.37 7.46,11.56 0.1,0.12 0.25,0.29 0.35,0.41 0.95,1.02 1.43,1.07 2.9,2.53 1,1 1.78,1.9 2.52,3.28l0.73 1.72c0.27,0.87 0.2,0.98 0.21,1.8l3.15 0c2.16,-2.46 1.77,-3.47 3.68,-5.73l12.06 -16.37c0.14,-0.12 0.29,-0.28 0.45,-0.38 0.17,-0.11 0.34,-0.24 0.53,-0.33 2.46,-1.08 2.14,-0.66 4.18,-0.35 -0.33,3.39 -8.42,13.19 -11.75,17.4 -0.09,0.12 -0.25,0.29 -0.34,0.41 -0.09,0.12 -0.24,0.29 -0.32,0.41 -0.09,0.12 -0.22,0.31 -0.3,0.43l-0.84 1.43c-0.08,0.15 -0.19,0.36 -0.27,0.51l-1.79 4.14 14.29 -19.01c7.97,-10.31 -1.91,-9.37 -5.45,-4.66 -3.43,4.56 -11.68,17.04 -15.71,19.73 -2.85,-1.91 -2.75,-2.72 -4.57,-5.67 -2.39,-3.87 -11.64,-17.3 -15.97,-17.27 -8.04,0.07 1.71,10.86 2.68,12.44 1.96,3.22 7.41,10.46 10.16,12.07z"/>
   <path class="fil1" d="M505.86 231.66c0,3.98 0.57,0.95 1.58,4.73l5.51 0c1.39,-2.07 1.82,-2.2 3.15,-4.73 -2.54,-4.8 -2.67,-4.73 -7.09,-4.73 -2.42,0 -3.15,2.31 -3.15,4.73z"/>
  </g>
 </g>
</svg>
