<?xml version="1.0" encoding="UTF-8"?>
<!DOCTYPE svg PUBLIC "-//W3C//DTD SVG 1.1//EN" "http://www.w3.org/Graphics/SVG/1.1/DTD/svg11.dtd">
<!-- Creator: CorelDRAW -->
<svg xmlns="http://www.w3.org/2000/svg" xml:space="preserve" width="467.223mm" height="369.954mm" version="1.1" style="shape-rendering:geometricPrecision; text-rendering:geometricPrecision; image-rendering:optimizeQuality; fill-rule:evenodd; clip-rule:evenodd"
viewBox="0 0 7755.95 6141.27"
 xmlns:xlink="http://www.w3.org/1999/xlink"
 xmlns:xodm="http://www.corel.com/coreldraw/odm/2003">
 <defs>
  <style type="text/css">
   <![CDATA[
    .fil0 {fill:#2B2B2A}
   ]]>
  </style>
 </defs>
 <g id="Слой_x0020_1">
  <metadata id="CorelCorpID_0Corel-Layer"/>
  <g id="_105553236089696">
   <path class="fil0" d="M3436.03 1791.38c2.43,6.23 1989.61,2261.6 2168.5,2357.42 1.79,-207.77 44.64,-946.67 -52,-1078.3 -100.86,-137.41 -757.31,-941.16 -793.44,-1056.66 135.54,-173.74 836.57,-1052.67 848.28,-1179.55l-123.73 -125.89 122.05 -108.89 -10.63 -420.76c-425.32,235.17 -1790.84,1283.2 -2159.04,1612.63zm1633.29 -1066l83.65 99.37c53.89,-26.65 69.09,-47.72 98.89,-98.58l-85.2 -90.23 -97.35 89.44zm59.5 341.17l90.08 102.35 99.91 -99.8 -99.28 -94.56 -90.72 92.01zm-442.84 162.73l125.72 128.12 127.26 -123.23 -122.03 -131.72 -130.95 126.82z"/>
   <path class="fil0" d="M2842.31 2668.33c-242.64,471.25 -851.57,804.14 -850.9,1362.06 0.18,158.02 0.39,315.54 2.53,473.57 18.76,-6.34 2043.29,-1465.42 2168.33,-1611.73 -146.91,-310.75 -2166.99,-2342.48 -2168.22,-2342.92l-1.69 963.23c19.92,173.73 755.75,904.87 849.95,1155.79z"/>
   <path class="fil0" d="M1637.25 6096.78c-12.85,-92.94 -32.46,-787.17 197.31,-669.58 122.18,102.08 19.56,513.47 32.13,682.08l368.34 -7.99c11.15,-146.56 -43.8,-807.95 232.77,-656.2 73.73,140.96 -4.58,488.54 10.68,664.31l367.44 -2.13c8.49,-125.77 51.61,-758.64 10.2,-843.98 -54.41,-112.14 -197.78,-143.8 -317.13,-139.42 -162.57,5.96 -191.63,48.83 -295.78,138.81 -185.76,-208.3 -398.03,-177.26 -591.29,-8.14l-7.6 -107.15 -349.39 8.75 5.25 210.85c-31.47,27.33 -67.74,676.88 -51.61,756.51 80.91,2.84 352.57,32.17 388.69,-26.72zm-1151.04 -292.82l-42.8 38.34c-249.63,32.02 -248.87,-36.32 -443.42,-56.65l29.65 306.78c269.13,56.71 773.85,111.38 873.48,-227.97 117.86,-401.43 -441.65,-463.34 -433.59,-714.66 130.51,-130.51 285.93,-39.1 439.58,-20.11l-20.3 -289.09c-179.91,-60.05 -515.79,-69.06 -677.78,33.47 -312.74,197.94 -65.04,512.43 -52.68,541.88 81.08,42.95 138.12,109.84 210.54,168.99 62.59,51.12 190.02,123.59 117.32,219.01zm4590.28 -350l187.73 -5.84c17.43,-63.86 26.84,-285.82 -27.81,-317.59 -157.04,-20.97 -192.97,17.27 -301.42,106.76l-8.72 -89.29 -348.59 4.75 -23.93 733.45c-30.01,60.67 -41.37,163.07 -17.6,230.69 72.2,6.47 132.83,0.41 204.9,1 166.74,1.36 143.46,27.26 172.07,-24.75 -9.18,-172.19 -42.73,-587.34 163.37,-639.18zm913.88 78.71l29.96 -90.9 205.49 -19.77c8.93,-83.26 22.63,-186.3 0.94,-269.27l-203.14 -6.46 -0.08 -248.67c-66.84,-9.74 -14.72,-16.57 -51.84,14.82l-296.62 57.7 -26.77 188.51 -151.33 16.78 -0.46 245.95 124.36 7.55c27.3,162.9 -63.16,497.05 33.69,617.85 103.67,129.33 359.97,102.22 505.31,57.41 39.32,-68.28 50.99,-179.74 54.68,-259.22 -300.38,7.28 -199.05,8.03 -224.18,-312.27zm-2308.19 546.41l41.86 -147.99c-75.71,-4.09 -131.93,8.77 -186.87,-41.77 -29.81,-134.92 180.15,-186.39 282.27,-193.03l-19.8 407.8 361.21 3.73c30.62,-123.04 -7.35,-550.02 47.3,-612.78 -32.57,-224.6 1.65,-326.08 -287.39,-364.01 -193.55,-25.4 -397.73,10.85 -585.6,50.52l-30.82 226.36c127.39,-10.16 450.63,-183.35 510.58,3.21 -76.21,160.8 -481.4,53.18 -621.43,320.39 -107.65,205.43 17.88,447.87 473.65,395.19l15.01 -47.62z"/>
   <path class="fil0" d="M6697.42 5224.44l148.43 224.71 -204.57 268.95c-55.11,65.57 -278.12,330.41 -287.44,395.49l433.63 6.45c44.8,-103.54 442.83,-612.84 519.28,-672.97l-1.04 -54.15c-44.23,-31.56 -304.37,-460.92 -364.21,-572.33l-458.73 -1.79c7.77,97.9 170.07,293.05 214.65,405.64zm383.81 581.5c9.45,75.42 124.23,223.1 161.62,314.1l460.46 -8.52c5.22,-110.75 -325.15,-490.12 -331.5,-608.32 -124.82,9.78 -174.46,209.74 -290.57,302.74zm85.54 -749.59c37.94,83.08 128.18,278.98 213.17,294.43 30.35,-107 365.5,-435.02 376.01,-527.65l-403.02 -5.16c-24.57,18.8 -174.1,197.98 -186.17,238.39z"/>
   <path class="fil0" d="M5972.04 56.24c5.94,71.63 31.56,84.92 91.47,124.99l88.46 -81.73c-25.14,-68.25 -21.27,-50.37 -70.4,-99.5l-61.58 2.79 -47.96 53.45z"/>
   <path class="fil0" d="M5646.73 346.62l103.28 98.28 94 -89.2c-24.84,-52.95 -50.53,-71.26 -97.92,-100.18l-99.36 91.1z"/>
   <path class="fil0" d="M5919.44 443.19l88.12 99.84c57.48,-20.6 70.17,-41.92 108.35,-94.74l-86.62 -93.05 -109.85 87.94z"/>
  </g>
 </g>
</svg>
